<svg xmlns="http://www.w3.org/2000/svg" width="23.865" height="24.63" viewBox="0 0 23.865 24.63"><g transform="translate(-125.169 -1.769)"><path d="M88.36,24.813H70.948a1.142,1.142,0,0,0-.133-.044,3.553,3.553,0,0,1-3.082-3.535q-.018-8.016,0-16.037A3.528,3.528,0,0,1,69.16,2.292,2.653,2.653,0,0,1,70.2,1.771v.408a8.348,8.348,0,0,0,.072,1.267,2.288,2.288,0,0,0,4.405.2,5.913,5.913,0,0,0,.121-1.188c.018-.294,0-.585,0-.877h2.543c0,.557-.026,1.094,0,1.627a2.211,2.211,0,0,0,1.494,1.886A2.321,2.321,0,0,0,81.95,2.845V1.566h2.463V2.827a2.355,2.355,0,0,0,.458,1.462,2.314,2.314,0,0,0,2.32.889,2.232,2.232,0,0,0,1.832-1.962c.036-.485,0-.975,0-1.462L89.1,1.7a8.805,8.805,0,0,1,1.023.6,3.578,3.578,0,0,1,1.46,3V21.379a3.483,3.483,0,0,1-2.011,3.052,7.923,7.923,0,0,1-1.206.38M71.068,8.074a1.426,1.426,0,0,0-1.556,1.281,1.579,1.579,0,0,0,0,.275v11.1a2.624,2.624,0,0,0,.078.662A2.07,2.07,0,0,0,71.7,22.981q7.959,0,15.914-.008a2.4,2.4,0,0,0,1-.221A2.054,2.054,0,0,0,89.8,20.724V9.689a1.442,1.442,0,0,0-1.243-1.615,1.424,1.424,0,0,0-.37,0H71.068" transform="translate(57.445 1.586)" fill="#003466"/><path d="M76.608,2.84a7.985,7.985,0,0,1,.008-1.005A1.128,1.128,0,0,1,77.861.886a1.114,1.114,0,0,1,1.16.991,14.2,14.2,0,0,1,.018,1.85,1.155,1.155,0,0,1-1.216,1.088l-.042,0a1.143,1.143,0,0,1-1.188-1.092V3.711c-.024-.288,0-.577,0-.865h.022" transform="translate(66.398 0.891)" fill="#ffb807"/><path d="M75.513,2.825c-.018.35-.014.7-.062,1.058a1.23,1.23,0,0,1-2.4-.07,16.5,16.5,0,0,1,0-1.892A1.134,1.134,0,0,1,74.23.889a1.116,1.116,0,0,1,1.235.961,7.951,7.951,0,0,1,.006.979h.046" transform="translate(62.803 0.894)" fill="#ffb807"/><path d="M69.5,2.852c0-.3-.02-.593,0-.887A1.145,1.145,0,0,1,70.683.887a1.133,1.133,0,0,1,1.247,1l0,.034a14.934,14.934,0,0,1,0,1.85,1.234,1.234,0,0,1-2.439-.034c-.02-.294,0-.591,0-.887" transform="translate(59.224 0.893)" fill="#ffb807"/><path d="M71.626,8.054H70.084A.683.683,0,0,1,69.4,7.37V6.132a.683.683,0,0,1,.684-.684h1.54a.685.685,0,0,1,.686.684V7.362a.686.686,0,0,1-.686.686" transform="translate(59.14 5.509)" fill="#ffb807"/><path d="M73.393,8.054H71.851a.683.683,0,0,1-.684-.684V6.132a.683.683,0,0,1,.684-.684h1.54a.685.685,0,0,1,.686.684V7.362a.686.686,0,0,1-.686.686" transform="translate(60.925 5.509)" fill="#ffb807"/><path d="M75.16,8.054H73.618a.683.683,0,0,1-.684-.684V6.132a.683.683,0,0,1,.684-.684h1.54a.685.685,0,0,1,.686.684V7.362a.686.686,0,0,1-.686.686" transform="translate(62.711 5.509)" fill="#ffb807"/><path d="M76.927,8.054H75.385A.683.683,0,0,1,74.7,7.37V6.132a.683.683,0,0,1,.684-.684h1.54a.685.685,0,0,1,.686.684V7.362a.686.686,0,0,1-.686.686" transform="translate(64.497 5.509)" fill="#ffb807"/><path d="M78.694,8.054H77.152a.683.683,0,0,1-.684-.684V6.132a.683.683,0,0,1,.684-.684h1.54a.685.685,0,0,1,.686.684V7.362a.686.686,0,0,1-.686.686" transform="translate(66.283 5.509)" fill="#ffb807"/><path d="M71.626,9.7H70.084a.683.683,0,0,1-.684-.684V7.782a.684.684,0,0,1,.684-.684h1.54a.686.686,0,0,1,.686.684V9.014a.685.685,0,0,1-.686.684" transform="translate(59.14 7.177)" fill="#ffb807"/><path d="M73.393,9.7H71.851a.683.683,0,0,1-.684-.684V7.782a.684.684,0,0,1,.684-.684h1.54a.686.686,0,0,1,.686.684V9.014a.685.685,0,0,1-.686.684" transform="translate(60.925 7.177)" fill="#ffb807"/><path d="M75.16,9.7H73.618a.683.683,0,0,1-.684-.684V7.782a.684.684,0,0,1,.684-.684h1.54a.686.686,0,0,1,.686.684V9.014a.685.685,0,0,1-.686.684" transform="translate(62.711 7.177)" fill="#ffb807"/><path d="M76.927,9.7H75.385a.683.683,0,0,1-.684-.684V7.782a.684.684,0,0,1,.684-.684h1.54a.686.686,0,0,1,.686.684V9.014a.685.685,0,0,1-.686.684" transform="translate(64.497 7.177)" fill="#ffb807"/><path d="M78.694,9.7H77.152a.683.683,0,0,1-.684-.684V7.782a.684.684,0,0,1,.684-.684h1.54a.686.686,0,0,1,.686.684V9.014a.685.685,0,0,1-.686.684" transform="translate(66.283 7.177)" fill="#ffb807"/><path d="M71.626,11.344H70.084a.683.683,0,0,1-.684-.684V9.428a.684.684,0,0,1,.684-.684h1.54a.686.686,0,0,1,.686.684V10.66a.685.685,0,0,1-.686.684" transform="translate(59.14 8.84)" fill="#ffb807"/><path d="M73.393,11.344H71.851a.683.683,0,0,1-.684-.684V9.428a.684.684,0,0,1,.684-.684h1.54a.686.686,0,0,1,.686.684V10.66a.685.685,0,0,1-.686.684" transform="translate(60.925 8.84)" fill="#ffb807"/><path d="M75.16,11.344H73.618a.683.683,0,0,1-.684-.684V9.428a.684.684,0,0,1,.684-.684h1.54a.686.686,0,0,1,.686.684V10.66a.685.685,0,0,1-.686.684" transform="translate(62.711 8.84)" fill="#ffb807"/><path d="M76.927,11.344H75.385a.683.683,0,0,1-.684-.684V9.428a.684.684,0,0,1,.684-.684h1.54a.686.686,0,0,1,.686.684V10.66a.685.685,0,0,1-.686.684" transform="translate(64.497 8.84)" fill="#ffb807"/><path d="M78.694,11.344H77.152a.683.683,0,0,1-.684-.684V9.428a.684.684,0,0,1,.684-.684h1.54a.686.686,0,0,1,.686.684V10.66a.685.685,0,0,1-.686.684" transform="translate(66.283 8.84)" fill="#ffb807"/><path d="M71.626,12.99H70.084a.683.683,0,0,1-.684-.684V11.074a.684.684,0,0,1,.684-.684h1.54a.686.686,0,0,1,.686.684v1.233a.685.685,0,0,1-.686.684" transform="translate(59.14 10.504)" fill="#ffb807"/><path d="M73.393,12.99H71.851a.683.683,0,0,1-.684-.684V11.074a.684.684,0,0,1,.684-.684h1.54a.686.686,0,0,1,.686.684v1.233a.685.685,0,0,1-.686.684" transform="translate(60.925 10.504)" fill="#ffb807"/><path d="M75.16,12.99H73.618a.683.683,0,0,1-.684-.684V11.074a.684.684,0,0,1,.684-.684h1.54a.686.686,0,0,1,.686.684v1.233a.685.685,0,0,1-.686.684" transform="translate(62.711 10.504)" fill="#ffb807"/><path d="M76.927,12.99H75.385a.683.683,0,0,1-.684-.684V11.074a.684.684,0,0,1,.684-.684h1.54a.686.686,0,0,1,.686.684v1.233a.685.685,0,0,1-.686.684" transform="translate(64.497 10.504)" fill="#ffb807"/><path d="M78.694,12.99H77.152a.683.683,0,0,1-.684-.684V11.074a.684.684,0,0,1,.684-.684h1.54a.686.686,0,0,1,.686.684v1.233a.685.685,0,0,1-.686.684" transform="translate(66.283 10.504)" fill="#ffb807"/></g></svg>