<svg xmlns="http://www.w3.org/2000/svg" width="25.153" height="25.998" viewBox="0 0 25.153 25.998"><g transform="translate(-192.486 -1.085)"><path d="M12.242,1.261l10.878-11C24.777-9.742,24,1.343,24,3V5a3,3,0,0,1-3,3H3A3,3,0,0,1,0,5L.451-9.2C.451-10.859,10.585,1.261,12.242,1.261Z" transform="translate(193.242 17.085)" fill="#ffb808"/><path d="M119.66,2.37A4.858,4.858,0,0,0,117.85,1,4.984,4.984,0,0,0,115.739.54H100.86A4.984,4.984,0,0,0,98.749,1,4.49,4.49,0,0,0,97.02,2.309a4.945,4.945,0,0,0-1.287,3.358V21.39a5.127,5.127,0,0,0,5.127,5.147h14.879a5.144,5.144,0,0,0,5.147-5.147V5.667a5.015,5.015,0,0,0-1.226-3.3m-.784,17.794a4.325,4.325,0,0,1-4.323,4.3H102.046a4.312,4.312,0,0,1-4.323-4.3V6.934a4.334,4.334,0,0,1,4.323-4.323h12.506a4.318,4.318,0,0,1,4.323,4.323Z" transform="translate(96.753 0.545)" fill="#003466"/><path d="M108.157,16.187a.756.756,0,0,1-.714-.3L96.164,4.469a1.005,1.005,0,1,1,1.43-1.413l10.568,10.7L118.808,3.112a1.005,1.005,0,0,1,1.422,1.422l-11.36,11.36a1.013,1.013,0,0,1-.712.294" transform="translate(96.895 2.785)" fill="#003466"/></g></svg>