<svg xmlns="http://www.w3.org/2000/svg" width="25.657" height="27.675" viewBox="0 0 25.657 27.675"><g transform="translate(-0.001 -0.248)"><path d="M1.325,12.363a1.325,1.325,0,0,1-.846-2.344L12.037.43a1.323,1.323,0,0,1,1.693,0l11.449,9.5a1.325,1.325,0,0,1-1.693,2.039L12.884,3.17,2.171,12.057a1.325,1.325,0,0,1-.846.306" transform="translate(0 0.124)" fill="#003466"/><path d="M18.857,21.584H5.3A4.562,4.562,0,0,1,.741,17.028V7.6a1.326,1.326,0,0,1,2.652,0v9.43A1.908,1.908,0,0,0,5.3,18.936H18.857a1.909,1.909,0,0,0,1.906-1.908V7.6a1.326,1.326,0,0,1,2.652,0v9.43a4.562,4.562,0,0,1-4.558,4.556" transform="translate(0.749 6.339)" fill="#003466"/><path d="M7.127,10.125H4.781A1.042,1.042,0,0,1,3.739,9.084V7.2A1.042,1.042,0,0,1,4.781,6.158H7.125A1.042,1.042,0,0,1,8.166,7.2V9.073a1.042,1.042,0,0,1-1.042,1.042" transform="translate(3.779 6.223)" fill="#ffb807"/><path d="M10.207,10.125H7.861A1.042,1.042,0,0,1,6.819,9.084V7.2A1.042,1.042,0,0,1,7.861,6.158H10.2A1.042,1.042,0,0,1,11.246,7.2V9.073A1.042,1.042,0,0,1,10.2,10.115" transform="translate(6.892 6.223)" fill="#ffb807"/><path d="M10.207,12.631H7.861A1.042,1.042,0,0,1,6.819,11.59V9.706A1.042,1.042,0,0,1,7.861,8.664H10.2a1.042,1.042,0,0,1,1.042,1.042v1.874A1.042,1.042,0,0,1,10.2,12.621" transform="translate(6.892 8.755)" fill="#ffb807"/><path d="M7.127,12.631H4.781A1.042,1.042,0,0,1,3.739,11.59V9.706A1.042,1.042,0,0,1,4.781,8.664H7.125A1.042,1.042,0,0,1,8.166,9.706v1.874a1.042,1.042,0,0,1-1.042,1.042" transform="translate(3.779 8.755)" fill="#ffb807"/></g></svg>