<svg xmlns="http://www.w3.org/2000/svg" width="46.146" height="18.947" viewBox="0 0 46.146 18.947"><path d="M8.49,2.443A2.835,2.835,0,0,1,6.219,3.515,3.214,3.214,0,0,1,7.03,1.163,3.388,3.388,0,0,1,9.284,0,3.422,3.422,0,0,1,8.49,2.443m.784,1.244c-1.253-.072-2.326.712-2.92.712S4.84,3.723,3.848,3.741A3.7,3.7,0,0,0,.7,5.652c-1.352,2.326-.352,5.769.955,7.662.64.937,1.406,1.965,2.416,1.929.955-.036,1.334-.622,2.488-.622s1.5.622,2.506.6c1.046-.018,1.7-.937,2.344-1.875A8.222,8.222,0,0,0,12.456,11.2,3.4,3.4,0,0,1,10.419,8.1a3.468,3.468,0,0,1,1.65-2.9A3.572,3.572,0,0,0,9.275,3.687m7.238-2.614V15.125h2.181v-4.8h3.02a4.46,4.46,0,0,0,4.7-4.633,4.408,4.408,0,0,0-4.624-4.615H16.513Zm2.181,1.839h2.515c1.893,0,2.975,1.01,2.975,2.785S23.1,8.491,21.2,8.491H18.694Zm11.7,12.322a3.609,3.609,0,0,0,3.218-1.794h.045v1.686h2.019V8.13c0-2.028-1.622-3.335-4.119-3.335-2.317,0-4.029,1.325-4.092,3.146h1.965a1.915,1.915,0,0,1,2.064-1.433c1.334,0,2.082.622,2.082,1.767V9.05l-2.722.162c-2.533.153-3.9,1.19-3.9,2.993C26.951,14.026,28.366,15.233,30.394,15.233Zm.586-1.668c-1.163,0-1.9-.559-1.9-1.415,0-.883.712-1.4,2.073-1.478l2.425-.153v.793A2.371,2.371,0,0,1,30.98,13.566Zm7.391,5.381c2.127,0,3.128-.811,4-3.272L46.2,4.931H43.987l-2.569,8.3h-.045L38.8,4.931h-2.28l3.7,10.231-.2.622a1.734,1.734,0,0,1-1.839,1.46c-.171,0-.5-.018-.64-.036v1.686A6.009,6.009,0,0,0,38.371,18.947Z" transform="translate(-0.059)"/></svg>