<svg xmlns="http://www.w3.org/2000/svg" xmlns:xlink="http://www.w3.org/1999/xlink" width="38.869" height="42.272" viewBox="0 0 38.869 42.272"><defs><clipPath id="a"><rect width="38.869" height="42.272" fill="#fff"/></clipPath></defs><g clip-path="url(#a)"><path d="M172.759,212.093l-.042,0-.366-.015c-.276-.01-.561-.021-.847-.046a5.972,5.972,0,0,1-2.817-.969,15.609,15.609,0,0,1-1.286-.994c-.173-.144-.353-.293-.53-.434l-.044-.035-.036-.043a13.04,13.04,0,0,1-1.956-2.932c-.012-.025-.024-.05-.036-.074-.026-.052-.056-.112-.083-.179l0-.007a1.446,1.446,0,0,0-.078-.169l-.02,0a1.5,1.5,0,0,1-1.018-1.035c-.3-.8-.606-1.617-.9-2.406l-.243-.653c-.034-.09-.058-.177-.08-.254a1.764,1.764,0,0,1,.126-1.483,1.8,1.8,0,0,1,1.314-.748l.433-.068.11.248a1.7,1.7,0,0,0,.07-.214c.164-.662.317-1.342.464-2q.086-.385.174-.77l.117-.512.52.074c.3.043.609.091.9.138.652.1,1.327.209,1.984.263.815.067,1.655.093,2.467.118.35.011.712.022,1.069.036.262-.005.527-.008.784-.011.59-.007,1.2-.013,1.792-.05.7-.044,1.426-.134,2.124-.222l.3-.037c.343-.043.7-.1,1.038-.159l.481-.079.506-.081.134.495q.082.3.162.6c.12.447.244.91.372,1.36l.086.305c.089.315.179.638.277.955l.043-.086.161-.311.35,0a1.352,1.352,0,0,1,1.118.473,1.37,1.37,0,0,1,.2,1.212,14.287,14.287,0,0,1-.482,1.583c-.033.092-.067.185-.1.277a6.326,6.326,0,0,0-.435,1.6,1.262,1.262,0,0,1-1.409,1.25,12.333,12.333,0,0,1-2.16,3.581c0,.006-.022.036-.035.057s-.035.059-.054.088l-.078.121-.126.069-.068.034c-.074.068-.147.137-.223.21-.153.145-.311.3-.481.438a6.486,6.486,0,0,1-3.6,1.492Zm-5.134-3.317c.171.137.34.277.5.413a14.534,14.534,0,0,0,1.192.923,4.846,4.846,0,0,0,2.286.782c.256.023.514.033.787.043l.335.013a5.359,5.359,0,0,0,2.937-1.226c.144-.12.282-.252.429-.391.09-.085.182-.173.278-.26a.788.788,0,0,1,.121-.09,1.235,1.235,0,0,1,.113-.153,11.225,11.225,0,0,0,1.989-3.329.912.912,0,0,1,1-.645.525.525,0,0,0,.263-.021.47.47,0,0,0,.042-.187,7.29,7.29,0,0,1,.5-1.888q.049-.134.1-.269a13.233,13.233,0,0,0,.444-1.455l.007-.033q-.032.055-.067.11a.9.9,0,0,1-.872.494.865.865,0,0,1-.712-.646c-.19-.533-.344-1.078-.492-1.606l-.085-.3c-.13-.459-.255-.926-.376-1.377l-.028-.1c-.343.058-.7.117-1.052.161l-.3.037c-.716.09-1.456.182-2.2.229-.62.039-1.246.046-1.85.053-.26,0-.528.006-.79.011H172.1c-.357-.014-.722-.025-1.075-.036-.826-.025-1.681-.051-2.525-.121-.7-.058-1.395-.167-2.067-.273l-.368-.058-.056.251c-.149.664-.3,1.35-.47,2.025a3.543,3.543,0,0,1-.395.925.9.9,0,0,1-.808.536.879.879,0,0,1-.73-.459.37.37,0,0,0-.14.118.737.737,0,0,0,.007.551c.019.068.036.127.054.175l.243.653c.293.787.595,1.6.9,2.4.107.282.176.32.179.322a1.224,1.224,0,0,1,.923.854l0,.007c.013.031.032.069.051.108s.033.067.049.1a11.862,11.862,0,0,0,1.757,2.634m12.051-2.9Zm.7-5.266Z" transform="translate(-153.018 -185.089)" fill="#fff"/><path d="M401.414,506.572c-.075,0-.146,0-.216-.005l-.11,0-.8-.019.273-.747c.007-.018.013-.037.019-.056a1.825,1.825,0,0,1,.078-.2l.417-.889c.6-1.276,1.217-2.593,1.835-3.889-.279-.207-.549-.422-.831-.648-.134-.107-.272-.217-.413-.328l-.94-.738,1.165-.266.572-.132c.428-.1.835-.194,1.245-.281.018-.721.041-1.447.063-2.152q.013-.413.026-.827l.09-2.949,2.552.928c1.962.713,3.991,1.451,5.985,2.18.183.067.355.144.521.219.139.063.271.122.4.172a4.241,4.241,0,0,1,2.695,3.229,14.739,14.739,0,0,1,.232,4.3,2.293,2.293,0,0,1-.617,1.65,3.113,3.113,0,0,1-1.922.941l-.224.018c-1.541.122-3.134.249-4.71.309-1.738.067-3.5.1-5.212.141q-1.055.022-2.109.047h-.071m1.893-6.947c.141.109.281.215.422.317a.858.858,0,0,1,.283,1.171c-.638,1.337-1.279,2.7-1.9,4.021l-.134.285,1.59-.035c1.7-.036,3.464-.074,5.193-.14,1.552-.06,3.134-.185,4.663-.307l.224-.018a2.029,2.029,0,0,0,1.227-.63c.2-.194.236-.469.264-.9a13.693,13.693,0,0,0-.205-3.966,3.085,3.085,0,0,0-1.99-2.418c-.162-.062-.316-.131-.464-.2s-.3-.135-.444-.188c-1.993-.729-4.022-1.466-5.984-2.18l-1.07-.389-.042,1.372q-.013.414-.026.828c-.024.771-.049,1.568-.068,2.351a.831.831,0,0,1-.741.847c-.265.055-.53.114-.8.176m-.307.955h0Z" transform="translate(-377.466 -464.357)" fill="#fff"/><path d="M14.937,503.764l-1.022-.013-1.615-.019c-1.244-.014-2.53-.028-3.8-.055s-2.533-.075-3.773-.143c-.482-.026-.964-.075-1.431-.122-.334-.034-.679-.068-1.016-.094a1.594,1.594,0,0,1-1.36-.956,8.416,8.416,0,0,1-.733-2.536,12.586,12.586,0,0,1-.123-3.44,11.616,11.616,0,0,1,.207-1.144,1.887,1.887,0,0,1,.942-1.21c.193-.116.384-.233.576-.351a19.526,19.526,0,0,1,2.249-1.247c1.518-.676,3.077-1.315,4.586-1.934.613-.251,1.248-.512,1.869-.77l.789-.328v6.292c.785.043,1.544.153,1.584.159l1.345.2-1.083.822c-.041.031-.848.642-1.638,1.152l.358.594,1.851,3.089Zm-4.791-12.655-1.085.446c-1.5.615-3.052,1.252-4.555,1.921a18.4,18.4,0,0,0-2.116,1.177c-.2.12-.39.239-.586.357-.357.215-.4.414-.416.479-.073.328-.146.68-.188,1.032a11.51,11.51,0,0,0,.119,3.135,7.353,7.353,0,0,0,.625,2.195c.13.26.25.317.426.33.351.027.7.062,1.044.1.454.046.923.093,1.379.118,1.227.067,2.483.115,3.735.141s2.544.041,3.784.055l.6.007-.183-.306L10.875,499.2c-.142-.236-.284-.473-.433-.718l-.514-.852.5-.292c.252-.147.531-.328.8-.51-.173-.01-.347-.016-.51-.016h-.57Z" transform="translate(0 -461.491)" fill="#fff"/><path d="M137.369,9.374l-.24-.035c-.476-.07-.958-.144-1.424-.216-1.093-.168-2.224-.342-3.335-.472-.855-.1-1.742-.142-2.6-.181-.26-.012-.52-.024-.78-.038-.192-.01-.384-.013-.581-.013l.015.042-.837-.025-.1,0c-.054,0-.1-.005-.143,0q-.658.031-1.316.058c-1.111.048-2.259.1-3.383.175-.692.048-1.4.155-2.091.259l-.479.071c-.467.068-.944.153-1.4.234l-.62.109-.216.037-.185-.117A7.051,7.051,0,0,1,115.8,7.729a2.926,2.926,0,0,1-.13-3.723A6.759,6.759,0,0,1,118.2,1.953a16.9,16.9,0,0,1,5.14-1.613A23.426,23.426,0,0,1,127.607,0a19.947,19.947,0,0,1,9.651,2.113,6.9,6.9,0,0,1,1.925,1.5h0a3.036,3.036,0,0,1-.1,4.412,8.776,8.776,0,0,1-1.064.862c-.16.116-.31.225-.457.339Zm-8.99-2.1c.22,0,.444,0,.669.015.258.014.516.026.774.038.878.041,1.785.083,2.68.188,1.132.133,2.273.308,3.376.478.387.06.785.121,1.18.18.1-.072.195-.143.29-.212a7.787,7.787,0,0,0,.93-.747,1.9,1.9,0,0,0,.053-2.845,5.764,5.764,0,0,0-1.609-1.247,18.865,18.865,0,0,0-9.121-1.98h-.009a22.269,22.269,0,0,0-4.062.323,15.8,15.8,0,0,0-4.8,1.5A5.619,5.619,0,0,0,116.6,4.656a1.8,1.8,0,0,0,.087,2.363,5.479,5.479,0,0,0,1.384,1.152l.4-.07c.469-.083.955-.169,1.438-.24l.475-.071c.71-.107,1.444-.217,2.182-.269,1.139-.079,2.295-.129,3.413-.177l.817-.035-.012-.034.815,0c.145,0,.29,0,.435,0l.344,0" transform="translate(-108.501 0)" fill="#fff"/><path d="M224.193,476.466l-.5-1.38-.266-.739c-.214-.6-.436-1.21-.66-1.812a1.109,1.109,0,0,1,.071-.985c.144-.254.285-.518.423-.773.147-.274.3-.556.457-.835-.594-.688-1.19-1.39-1.767-2.07l-.209-.246-.787.921c-.391.458-.794.931-1.195,1.4.141.252.277.506.41.753.152.282.309.573.467.854a1.11,1.11,0,0,1,.069.989c-.241.637-.479,1.289-.709,1.919l-.211.578-.479,1.309-.576-1.269c-.012-.025-.024-.051-.036-.076a2.506,2.506,0,0,1-.107-.247q-1.5-4.228-3.007-8.456l-.6-1.683.353-.25c.018-.013.035-.027.053-.041a1.323,1.323,0,0,1,.306-.193c.254-.107.509-.207.757-.3l.259-.1.192-.076.2.065.1.031c.089.027.189.058.293.1l1.594.665c.871.363,1.771.739,2.657,1.106.2-.085.395-.179.6-.277l.271-.129.043-.02.046-.013.062-.016.012,0c.944-.42,2.178-.969,3.42-1.525l.006,0c.024-.021.049-.041.074-.06l.314-.238.334.21,1.012.637-.545,1a.417.417,0,0,0,.316-.022.436.436,0,0,0,.234-.251c0,.01,0,.021-.007.031-.007.032-.015.071-.029.115q-.818,2.645-1.633,5.287-.669,2.168-1.339,4.335a2.911,2.911,0,0,1-.13.33c-.016.036-.032.072-.047.108Zm-7.83-11.377.294.826q1.294,3.641,2.589,7.282c.13-.353.262-.708.395-1.06l.007-.021,0-.005c-.163-.29-.323-.586-.478-.873s-.314-.584-.476-.869a.851.851,0,0,1,.1-1.047c.434-.5.872-1.017,1.3-1.514q.517-.607,1.036-1.212c-.83-.344-1.668-.694-2.48-1.033l-1.594-.665c-.032-.013-.069-.026-.108-.039l-.074.029c-.166.065-.337.132-.5.2m7.465,7.027.007.021c.126.337.251.678.373,1.017l.973-3.153q.8-2.6,1.605-5.2l-.172-.108c-1.236.553-2.461,1.1-3.4,1.514a.989.989,0,0,1-.174.057l-.212.1c-.155.074-.313.15-.475.223l.462.544c.6.705,1.218,1.435,1.832,2.145a.9.9,0,0,1,.116,1.122c-.173.3-.341.612-.5.915-.14.261-.285.53-.435.795l0,0m-1.787-4.838,0,0,0,0m-.4-1.619h0m1.12-.492h0" transform="translate(-202.724 -436.909)" fill="#fff"/><path d="M182.745,491.717l-4.976,0-.653-1.09-2.071-3.457c-.142-.237-.285-.473-.433-.718l-.514-.852.5-.292c.252-.147.531-.328.8-.51-.173-.01-.347-.016-.51-.016h-.57v-6.954l3.138-1.189.552,1.552q1.551,4.365,3.1,8.729c.013.037.036.085.061.136.016.033.032.066.047.1l.02.05.238.692c.189.547.383,1.113.572,1.671.11.324.215.653.317.971q.07.217.14.435Zm-4.33-1.144,2.763,0c-.069-.215-.14-.433-.212-.646-.188-.555-.382-1.119-.57-1.665l-.229-.666-.025-.053a2.435,2.435,0,0,1-.107-.247q-1.553-4.364-3.1-8.729l-.162-.455-1.313.5v5.043c.785.043,1.545.153,1.584.159l1.345.2-1.083.822c-.041.031-.848.642-1.637,1.152.122.2.24.4.358.594l2.071,3.457Z" transform="translate(-164.17 -449.454)" fill="#fff"/><path d="M348.072,491.209c-.81,0-1.631,0-2.426-.006l-1.315,0,.227-.736.234-.755c.192-.618.391-1.258.58-1.888.069-.228.127-.459.189-.7.029-.113.057-.226.087-.338l.01-.038.015-.036c.019-.046.039-.091.059-.136a2,2,0,0,0,.082-.2q.693-2.241,1.384-4.483.793-2.569,1.586-5.137l0-.022a.77.77,0,0,1,.392-.564.737.737,0,0,1,.663.017l.024.012.439.231c.454.238.922.485,1.383.73a1.692,1.692,0,0,1,.252.171l.059.045.244.177L352.171,480q-.013.414-.026.828c-.024.771-.049,1.568-.068,2.351a.831.831,0,0,1-.741.847c-.265.055-.53.114-.8.176.141.109.281.215.422.317a.858.858,0,0,1,.283,1.171c-.638,1.337-1.279,2.7-1.9,4.021l-.417.889c-.007.016-.019.049-.03.082s-.019.056-.029.084l-.089.245-.239.09-.015.007a.819.819,0,0,1-.369.1Zm-2.2-1.146c.672,0,1.36,0,2.04.005l.393-.838c.6-1.275,1.217-2.593,1.835-3.889-.279-.207-.549-.422-.831-.648-.134-.107-.272-.217-.413-.328l-.939-.738,1.165-.266.572-.132c.428-.1.835-.194,1.245-.281.018-.721.041-1.447.063-2.152q.013-.413.026-.827l.056-1.85c-.436-.232-.88-.466-1.311-.692l-.007,0q-.741,2.4-1.481,4.795-.692,2.242-1.385,4.484a2.888,2.888,0,0,1-.13.329l-.033.075q-.038.144-.074.289c-.062.246-.127.5-.2.754-.191.634-.39,1.276-.583,1.9Z" transform="translate(-324.694 -448.938)" fill="#fff"/><path d="M280.837,525.578l-1.255,0h-.414l-.127-.394-.127-.4c-.1-.328-.213-.667-.325-1-.181-.534-.368-1.077-.548-1.6l-.26-.756-.066-.191.069-.19.211-.577c.231-.633.47-1.288.714-1.931l.007-.02,0-.005c-.164-.289-.323-.586-.478-.873s-.314-.584-.476-.869a.851.851,0,0,1,.1-1.047c.434-.5.872-1.017,1.3-1.514q.543-.637,1.087-1.271a.794.794,0,0,1,.4-.239l.018-.005.376-.155.268.316.579.682c.6.705,1.218,1.435,1.832,2.146a.9.9,0,0,1,.116,1.122c-.173.3-.341.612-.5.915-.14.261-.285.53-.435.794l0,0,.007.021c.227.607.449,1.226.665,1.824l.266.737.061.167-.045.172c-.028.108-.056.216-.083.324-.063.247-.127.5-.2.758-.191.631-.389,1.27-.581,1.887l-.237.763-.124.4H282.2l-1.366,0M280,524.436h1.781l.113-.363c.191-.616.389-1.252.578-1.878.069-.23.128-.462.19-.708l.041-.161-.206-.573c-.214-.6-.436-1.211-.66-1.812a1.109,1.109,0,0,1,.071-.985h0c.144-.254.285-.518.423-.773.147-.274.3-.556.457-.835-.594-.688-1.19-1.39-1.767-2.07l-.209-.246q-.395.461-.787.921c-.391.458-.794.931-1.195,1.4.141.252.278.506.41.753.152.282.309.573.467.854a1.11,1.11,0,0,1,.069.989c-.241.637-.479,1.289-.709,1.919l-.142.388.194.563c.181.527.369,1.071.551,1.609.114.337.224.68.33,1.012m1.11-10.753,0,0,0,0" transform="translate(-261.793 -483.314)" fill="#fff"/><path d="M166.893,131.505h-.617l-.157,0-.091-.056-.465-.049c-.567-.061-1.153-.123-1.728-.172l-.42-.036c-.843-.073-1.715-.149-2.568-.186-.776-.033-1.571-.04-2.34-.047-.34,0-.68-.006-1.02-.011l-.354-.005-1.078.038c-1.2.042-2.431.085-3.645.137-.33.014-.66.051-1.01.09-.185.021-.377.042-.568.06q-.643.059-1.286.115l-.719.064-.471.042-.16-.569c-.026-.092-.051-.184-.079-.276-.054-.178-.109-.354-.165-.531l-.027-.086-.507-.592-.652-.763.989-.169.62-.109c.467-.083.951-.169,1.433-.239l.47-.07c.712-.107,1.447-.218,2.187-.269,1.131-.079,2.279-.128,3.389-.176l.84-.037-.013-.036.816,0c.148,0,.3,0,.444,0,.326,0,.664,0,1,.013l.773.037c.878.041,1.785.083,2.681.188,1.126.132,2.261.306,3.358.475.47.072.956.147,1.434.217l.961.141-.591.77a3.085,3.085,0,0,0-.612,1.588Zm-8.844-1.7.469,0c.778.007,1.583.014,2.378.048.878.037,1.763.114,2.619.189l.419.036c.587.05,1.179.114,1.751.175l.231.025a4.29,4.29,0,0,1,.268-.786l-.6-.092c-1.087-.167-2.212-.34-3.317-.47-.856-.1-1.743-.142-2.6-.181-.26-.012-.52-.024-.78-.038-.192-.01-.384-.013-.581-.013l.013.037-.832-.02-.108,0c-.051,0-.1,0-.135,0q-.67.032-1.339.059c-1.1.048-2.243.1-3.36.174-.694.048-1.406.155-2.1.259l-.474.071c-.344.05-.693.109-1.037.17l.008.01.1.309c.052.166.1.331.154.5l.251-.022q.641-.057,1.281-.115c.18-.017.366-.038.546-.058.353-.04.718-.08,1.087-.1,1.219-.053,2.457-.1,3.655-.137l1.459-.051.572-.021Z" transform="translate(-138.397 -120.288)" fill="#fff"/><path d="M244.348,408.825a1.2,1.2,0,0,1-.447-.1c-.894-.37-1.8-.748-2.675-1.114l-1.594-.665c-.054-.023-.12-.043-.19-.065l-.117-.037-.393-.13.015-4.841.922.734c.186.148.371.3.549.449a14.6,14.6,0,0,0,1.19.922,4.848,4.848,0,0,0,2.286.781c.256.023.515.032.788.042l.334.013a5.283,5.283,0,0,0,2.937-1.227c.145-.122.285-.254.433-.4.088-.084.179-.17.273-.256a.915.915,0,0,1,.234-.15l.017-.008.841-.466,0,.963.018,3.076-.228.172-.022.018a1,1,0,0,1-.243.162c-1.264.566-2.523,1.126-3.478,1.551a.991.991,0,0,1-.174.057l-.212.1c-.247.118-.5.241-.769.349a.778.778,0,0,1-.3.056m-.129-1.114h0m-4.145-1.812,1.591.663c.871.363,1.771.739,2.657,1.106.2-.085.395-.179.6-.277l.271-.129.043-.02.046-.013.062-.016.012,0c.906-.4,2.08-.925,3.271-1.459l-.007-1.231a6.485,6.485,0,0,1-3.534,1.438l-.042,0-.042,0-.364-.015c-.276-.01-.562-.021-.849-.046a5.976,5.976,0,0,1-2.818-.969c-.313-.209-.608-.439-.894-.671Zm5.265,1.319h0" transform="translate(-225.304 -378.96)" fill="#fff"/><path d="M165.961,136.525h-.015a.931.931,0,0,1-.806-.588c-.045-.085-.08-.168-.11-.24l-.034-.08-.012-.03c-.053-.14-.108-.278-.167-.424a10.087,10.087,0,0,1-.367-1.022,10.657,10.657,0,0,1-.4-4.209,1.769,1.769,0,0,1,.051-.245c.005-.02.011-.041.016-.062l.474-2.048.694,2.225c.054.173.108.345.161.519.029.1.056.193.083.29l.034.12c.032.115.106.238.427.367s.646.24.991.357c.148.05.3.1.444.153l.48.169-.113.5q-.087.383-.173.766c-.149.664-.3,1.35-.47,2.025a3.541,3.541,0,0,1-.395.925.909.909,0,0,1-.793.537m-.783-4.56a11.319,11.319,0,0,0,.37,1.866,9.086,9.086,0,0,0,.328.907c.033.083.067.168.1.254a1.677,1.677,0,0,0,.065-.2c.164-.662.317-1.342.464-2l.061-.27c-.329-.112-.668-.229-1-.362a2.4,2.4,0,0,1-.388-.191" transform="translate(-154.633 -120.302)" fill="#fff"/><path d="M440.832,183.022a.736.736,0,0,1-.086,0,.865.865,0,0,1-.712-.646c-.19-.533-.344-1.078-.492-1.606l-.085-.3c-.13-.459-.255-.925-.376-1.376q-.081-.3-.162-.6l-.139-.513.7-.243c.144-.05.287-.1.43-.15l.157-.055c.543-.19.886-.323,1.085-.666l.168-.29.871.014.1.428a7.328,7.328,0,0,1,.145,2.688,14.246,14.246,0,0,1-.281,1.417c-.046.194-.093.4-.134.591l-.016.075-.035.068c-.031.061-.061.122-.091.184a4.455,4.455,0,0,1-.264.489.932.932,0,0,1-.786.5m.288-1.006Zm-.962-3.315.024.09c.12.447.244.909.372,1.36l.086.305c.089.316.179.638.277.955l.008-.016c.04-.182.082-.363.124-.539a13.207,13.207,0,0,0,.261-1.3,6.24,6.24,0,0,0,.031-1.335,4.966,4.966,0,0,1-.9.384l-.15.053-.136.048" transform="translate(-413.757 -166.5)" fill="#fff"/><path d="M178.582,169.642h-.017c-.357-.014-.722-.025-1.075-.036-.827-.025-1.682-.051-2.526-.121-.7-.057-1.394-.167-2.067-.272-.292-.046-.593-.093-.888-.135l-.056-.008-.053-.019c-.144-.051-.288-.1-.433-.149-.344-.117-.7-.238-1.049-.379a1.732,1.732,0,0,1-1.1-1.115l-.186-.661.684-.061.72-.064q.641-.057,1.281-.115c.18-.017.366-.038.546-.058.353-.04.718-.08,1.087-.1,1.219-.053,2.457-.1,3.655-.137l1.459-.051.572-.021v.046l.469,0c.778.007,1.583.014,2.378.048.878.037,1.763.114,2.619.189l.419.036c.586.05,1.178.114,1.751.175l.589.062a.658.658,0,0,1,.329.135l.454.281-.277.479a2.815,2.815,0,0,1-1.693,1.17l-.152.054c-.155.055-.31.109-.465.162l-.221.076-.05.008c-.159.025-.318.052-.476.079-.352.059-.716.12-1.082.166l-.292.037c-.716.09-1.457.183-2.2.229-.62.039-1.245.046-1.849.052-.26,0-.529.006-.792.011Zm-6.357-1.687c.285.041.571.086.849.13.652.1,1.327.208,1.984.262.815.067,1.655.093,2.467.118.35.011.711.022,1.068.036.263-.005.528-.008.786-.011.59-.007,1.2-.013,1.791-.05.705-.044,1.428-.135,2.127-.222l.294-.037c.341-.042.693-.1,1.033-.159l.437-.072.128-.044c.151-.052.3-.1.453-.158l.16-.056.014,0c-.3-.03-.594-.059-.889-.084l-.42-.036c-.843-.073-1.715-.149-2.568-.186-.776-.033-1.571-.04-2.34-.047-.34,0-.68-.006-1.019-.011l-.354-.005-1.078.038c-1.2.042-2.431.085-3.645.137-.33.014-.66.051-1.01.09-.185.021-.377.042-.568.06l-.483.044.4.136.39.134" transform="translate(-159.487 -156.667)" fill="#fff"/><path d="M157.494,103.672a.414.414,0,0,1-.316-.271c-.056-.178-.1-.356-.137-.544l-.02-.088-.993.219-.036-.13-.056-.2c-.064-.225-.124-.437-.177-.657a.3.3,0,0,1,.172-.324c.242-.065.481-.12.734-.178l.233-.054.138-.032.23.961.094-.016c.2-.033.392-.065.582-.109a.2.2,0,0,0,.02-.07c-.022-.174-.058-.35-.1-.536-.015-.073-.03-.147-.045-.223l-.028-.143.144-.024,1.047-.178.137-.023.027.137c.055.281.107.553.162.84l.516-.061.506-.06.02.137c.012.081.024.163.035.244s.021.142.031.214l.1.675-.142.02-1,.138-.134.019-.185-.973-.7.109.168.976-.134.029-.217.048c-.214.048-.436.1-.657.127l-.025,0m-.013-.284h0m-.193-.727.03.134c.041.182.079.355.131.521a.225.225,0,0,0,.059.068c.2-.029.4-.073.606-.119l.086-.019-.127-.736a.17.17,0,0,1-.031.011c-.211.051-.428.087-.637.122l-.117.019m2.044-.348.137.722.725-.1-.055-.375c0-.006,0-.013,0-.019-.01-.069-.02-.139-.031-.21l-.015-.107-.232.027-.527.062m-3.294-.361c.051.21.109.415.171.631l.019.068.768-.169-.173-.725-.1.022c-.237.055-.462.106-.687.166l0,.007m2.09-.442.016.077c.039.191.076.372.1.559a.3.3,0,0,1,0,.073l.79-.124c-.047-.245-.092-.479-.138-.716l-.766.13m-2.125.445h0m.031-.019v0" transform="translate(-146.87 -95.289)" fill="#fff"/><path d="M228.349,98.041l-.064-.371c-.009-.048-.017-.1-.025-.147l-.049-.285c-.017-.1-.035-.2-.054-.312l-.026-.149.15-.017.659-.075.556-.063.017.141c.02.166.038.325.057.482s.04.34.06.508l.017.143Zm.114-1.013.028.162.049.286c.008.049.017.1.025.146l.018.106.745-.083-.043-.366-.04-.341-.274.031-.509.058" transform="translate(-215.121 -91.113)" fill="#fff"/><path d="M249.4,95.248l-.134-1.281.823-.094.165-.019h.01q0-.05-.007-.1c-.011-.168-.021-.327-.047-.479a.417.417,0,0,1,.056-.343.37.37,0,0,1,.3-.115c.183,0,.369-.017.566-.03l.285-.018.14-.008.076.961h.728v-1h1.3l.008.134c.013.205.026.41.04.622l.012.186h.687l.072-.944h1.356l-.024.244c0,.041-.009.081-.013.121s-.008.071-.011.105V93.2c0,.025-.006.049-.008.073l-.072.675h-.128l-.069.047-.277,0h-.484v.964l-.136.006-.451.022h-.751V93.99h-.5l-.211.009-.007.207v.8l-.136.006-.71.034-.424.02-.017-.181c-.025-.268-.048-.528-.073-.8l-.706.055.08.975Zm.179-1.03.075.718.735-.074-.06-.73-.043,0-.165.019Zm2.023-.211c.023.26.046.509.07.763l.151-.007.575-.028V94.2l.006-.2Zm2.088.692h.456l.313-.015v-.736h-.769Zm-3.2-1.584a.377.377,0,0,0,.008.112c.028.167.039.332.05.508q0,.063.009.127l.8-.062-.058-.738-.143.009c-.2.013-.389.026-.578.03a.177.177,0,0,0-.084.014h0m2.157-.109v.71l.253-.01h.538l-.013-.21-.031-.489Zm2.044.7.733,0,.024-.016.048-.45c0-.024.005-.05.008-.075v-.009c0-.035.007-.071.012-.106L255.52,93h-.777Z" transform="translate(-235.055 -87.43)" fill="#fff"/><path d="M360.742,96.594l-.144-.015-1.045-.111-.143-.015.016-.143c.007-.061.014-.118.021-.174.014-.109.027-.212.032-.312a1.211,1.211,0,0,0-.008-.348,1.226,1.226,0,0,0-.346-.029,3.186,3.186,0,0,1-.337-.031h0c-.019.27-.038.539-.058.8l-.01.132h-1.289v-1.36l1.077.043,0-.56a.35.35,0,0,1,.1-.277.334.334,0,0,1,.273-.064c.2.023.4.031.613.039l.275.012.145.008-.073.979,1.015.127-.012.137c-.03.332-.059.664-.091,1.012Zm-1.015-.394.757.08.065-.73-.79-.1a1.815,1.815,0,0,1,0,.388c-.005.111-.019.22-.034.335l0,.027m-2.01-.132h.738c.018-.247.036-.5.053-.746l-.792-.032Zm1.076-.938.031,0a2.91,2.91,0,0,0,.307.029,1.493,1.493,0,0,1,.424.04l.055-.737-.125,0c-.209-.008-.424-.016-.635-.041a.258.258,0,0,0-.048,0,.359.359,0,0,0,0,.061Z" transform="translate(-337.048 -88.764)" fill="#fff"/><path d="M413.449,98.11l-.134-.015-1.02-.114-.141-.016.031-.287c.006-.055.013-.109.018-.163l.09-.819,1.374.142-.026.151c-.009.052-.018.1-.027.155l-.039.226c-.017.1-.033.193-.05.287l-.018.106-.019.114Zm-.981-.4.745.083.014-.081.018-.107q.024-.142.05-.287l.039-.225V97.09l-.789-.082-.059.537c-.006.055-.012.109-.018.164Z" transform="translate(-388.65 -91.182)" fill="#fff"/><path d="M430.781,103.75l-.136-.027-.68-.137-.469-.095.127-.561.087-.383-.022,0-.7-.139-.021.117c-.034.188-.066.365-.092.542a.352.352,0,0,1-.127.247.331.331,0,0,1-.264.041c-.175-.033-.356-.058-.547-.084l-.271-.038-.141-.021.078-.54c.029-.2.057-.395.086-.592l.02-.137.151.018.113.013.194.023.56.066c.056-.276.111-.552.168-.839l.027-.135,1.33.221-.029.144c-.014.068-.028.135-.042.2-.033.149-.063.29-.08.431a.87.87,0,0,0,.017.217l0,.017.957.181-.13.561-.129.558Zm-.942-.48.183.037.544.109.1-.423.063-.272-.733-.138-.093.411Zm-2-.3.128.018c.195.027.379.052.561.086a.2.2,0,0,0,.044,0,.259.259,0,0,0,.012-.054c.027-.181.059-.361.093-.551l.023-.127-.576-.068-.183-.021q-.033.226-.066.454Zm1.158-.849.742.146.078.015a.9.9,0,0,1-.008-.23c.018-.155.05-.3.084-.459l.011-.052-.765-.127c-.048.24-.094.473-.141.706" transform="translate(-403.139 -95.319)" fill="#fff"/><path d="M484.976,108.946a.2.2,0,0,1-.041,0l-.008,0-.093-.019c-.161-.034-.32-.076-.5-.124l-.171-.045-.085-.022-.13-.033.238-1.265.144.032.237.053c.255.056.5.109.738.174a.323.323,0,0,1,.179.343,5.089,5.089,0,0,1-.189.7.38.38,0,0,1-.324.211m.014-.284h0Zm-.708-.175.13.034c.173.046.329.088.485.121l.083.017a.169.169,0,0,0,.056-.032,4.839,4.839,0,0,0,.173-.645.134.134,0,0,0-.009-.027c-.224-.058-.45-.108-.689-.161l-.094-.021Zm.749.151h0" transform="translate(-456.354 -101.305)" fill="#fff"/></g></svg>