<svg xmlns="http://www.w3.org/2000/svg" xmlns:xlink="http://www.w3.org/1999/xlink" width="43.836" height="35.415" viewBox="0 0 43.836 35.415"><defs><radialGradient id="a" cx="0.509" cy="0.477" r="1.067" gradientTransform="translate(-2.523 -0.533) scale(2.314 2.309)" gradientUnits="objectBoundingBox"><stop offset="0" stop-color="#f8ce00"/><stop offset="1" stop-color="#b79700"/></radialGradient><radialGradient id="b" cx="-0.8" cy="0.398" r="0.022" gradientTransform="translate(-233.267 3.72) scale(9.296 9.296)" xlink:href="#a"/><radialGradient id="c" cx="1.8" cy="0.398" r="0.022" gradientTransform="matrix(-9.296, 0, 0, 9.296, 200.804, 3.575)" xlink:href="#a"/><radialGradient id="d" cx="0.5" cy="0.5" r="1.014" gradientTransform="translate(0.467 1.38) scale(0.493 0.493)" xlink:href="#a"/><radialGradient id="e" cx="0.466" cy="0.461" r="0.673" gradientTransform="translate(0.258 0.288) scale(0.802 0.802)" xlink:href="#a"/></defs><g transform="translate(35.1 -1.21) rotate(60)"><rect width="1.438" height="4.074" rx="0.719" transform="translate(1.436 32.841)" fill="#60585a"/><rect width="1.438" height="4.074" rx="0.719" transform="translate(16.708 32.323)" fill="#60585a"/><g transform="translate(12.878 4.379) rotate(180)"><path d="M1.619.327A4.524,4.524,0,0,0,.762.345C.577.382.168.54.365.794a1.438,1.438,0,0,0,1.1.192l.027.31A1.64,1.64,0,0,1,.1.968C-.212.475.273.119.72.036c.3-.038.6-.018.9-.036V.327Z" transform="translate(0 0)" fill="#4a00ad"/><path d="M1.619.987A4.524,4.524,0,0,1,.762.97C.577.933.168.775.365.521a1.438,1.438,0,0,1,1.1-.192l.027-.31A1.64,1.64,0,0,0,.1.346c-.31.493.175.849.623.933.3.038.6.018.9.036V.987Z" transform="translate(0 0.977)" fill="#4a00ad"/><path d="M.983.209C.876.2.766.2.659.2.568.2.264.156.208.254A.178.178,0,0,0,.28.444,1,1,0,0,0,.769.473c.187-.009.442-.03.5.2a.556.556,0,0,1-.243.473A.923.923,0,0,1,.4,1.213C.275,1.2.148,1.177.02,1.162l.023-.2C.172.981.3,1,.427,1.019A.764.764,0,0,0,.9.984a.37.37,0,0,0,.162-.27C1.068.635.824.666.779.668A1.1,1.1,0,0,1,.16.606.358.358,0,0,1,.06.115c.153-.145.4-.108.6-.108C.766.006.876.01.983,0V.209Z" transform="translate(1.742 1.044)" fill="#4a00ad"/><g transform="translate(2.891 1.05)"><path d="M0,0C.124.013.252.008.377.008c.235,0,.469,0,.7,0l.141,0V.182l-.141,0c-.235,0-.469,0-.7,0C.252.179.124.174,0,.186V0Z" transform="translate(0 0)" fill="#4a00ad"/><path d="M.207,0A1.6,1.6,0,0,0,.2.209Q.2.414.2.619C.2.71.2.8.2.891.2.946.2,1,.2,1.054H0C0,1,0,.946,0,.891,0,.8,0,.71,0,.619q0-.205,0-.411A1.6,1.6,0,0,0,0,0H.207Z" transform="translate(0.485 0.13)" fill="#4a00ad"/></g><g transform="translate(4.177 1.033)"><path d="M.177,0A2.362,2.362,0,0,0,.17.27Q.167.6.17.94q0,.11,0,.219H0q0-.11,0-.219Q.011.6.007.27A2.374,2.374,0,0,0,0,0H.177Z" transform="translate(0 0.053)" fill="#4a00ad"/><path d="M0,0C.073.008.148,0,.222.006.378.013.516.059.537.234A.289.289,0,0,1,.274.548a1.02,1.02,0,0,1-.238,0L.054.382a.8.8,0,0,0,.189,0C.326.37.368.34.367.252S.285.175.217.172A1.674,1.674,0,0,0,0,.175V0Z" transform="translate(0.071 0)" fill="#4a00ad"/><path d="M0,0A1.9,1.9,0,0,0,.193,0,.637.637,0,0,1,.6.084c.1.1.063.226.027.347A.955.955,0,0,0,.575.677c0,.017,0,.033,0,.05L.4.731Q.4.7.4.672A1.116,1.116,0,0,1,.46.383C.473.339.509.258.485.213.427.147.269.17.193.171A1.9,1.9,0,0,0,0,.175V0Z" transform="translate(0.141 0.47)" fill="#4a00ad"/><rect width="0.122" height="0.157" transform="translate(0.001 0.001)" fill="#4a00ad"/></g><path d="M1.2.653a.628.628,0,0,1-.6.653A.628.628,0,0,1,0,.653.628.628,0,0,1,.6,0a.628.628,0,0,1,.6.653ZM1.009.636A.428.428,0,0,1,.6,1.08.428.428,0,0,1,.191.636.428.428,0,0,1,.6.191.428.428,0,0,1,1.009.636Z" transform="translate(5.014 0.999)" fill="#4a00ad" fill-rule="evenodd"/></g><rect width="1.438" height="4.074" rx="0.719" transform="translate(17.096 5.662)" fill="#60585a"/><rect width="1.438" height="4.074" rx="0.719" transform="translate(1.04 5.822)" fill="#60585a"/><path d="M17.444,41.12c-5.853.122-6.751-.928-7.616-1.1C8.964,38.012,8.8,21.087,9.319,19.7c.388-3.134-.256-3.653-.45-7.43-.37-4.411.508-1.958-.23-6.444C9.76,1.158,7.648,1.063,17.363.619c8.915.124,7.66.539,8.78,5.209-.738,4.486.14,2.033-.23,6.444-.194,3.777-.838,4.3-.45,7.43.519,1.384.355,18.309-.51,20.317-1.354.784-4.942,1.1-7.51,1.1Z" transform="translate(-7.599)" fill-rule="evenodd" fill="url(#a)"/><path d="M32.787,281.874l1.115,4.268s0,8-.159,8.135-1.433,2.4-1.433,2.4.318-14.537.478-14.8Z" transform="translate(-30.044 -266.695)" fill-rule="evenodd" fill="url(#b)"/><path d="M298.421,276.874l-1.115,4.268s0,8,.159,8.135,1.433,2.4,1.433,2.4-.318-14.537-.478-14.8Z" transform="translate(-281.322 -261.954)" fill-rule="evenodd" fill="url(#c)"/><path d="M29.91,20.9c-.6.966-.56,10.158.406,10.883.933-.769,6.341-1.483,7.369-1.417,1.05-.077,5.161.417,6.424,1.175.34.11,1.021-10.641.055-11.366-3.02-.846-13.046-.846-14.254.724Z" transform="translate(-27.392 -18.013)" fill="#f7ce00" fill-rule="evenodd"/><path d="M41.587,231.206a21.859,21.859,0,0,1,7.177-1.428,16.012,16.012,0,0,1,7.02,1.3c-.251,2.524-.5,4.915-1.131,5.712-5.779-1.461-6.156-1.461-11.936,0-.126-.8-1.257-5.447-1.131-5.579Z" transform="translate(-38.832 -217.295)" fill-rule="evenodd" fill="url(#d)"/><path d="M45.344,236.095a22.314,22.314,0,0,1,6.986-1.315,16.365,16.365,0,0,1,6.833,1.192c-.245,2.324-.489,4.525-1.1,5.259-5.626-1.345-5.992-1.345-11.618,0-.122-.734-1.223-5.014-1.1-5.136Z" transform="translate(-42.396 -222.038)" fill="rgba(0,0,0,0.71)" fill-rule="evenodd"/><path d="M54.587,529.087c-.64,3.073-1.153,8.964-1.153,8.964,1.024.9,6.275,1.281,6.4,1.281.384,0,5.634-.384,6.531-1.665a79.87,79.87,0,0,0-1.024-8.708c-4.482.64-10.5.384-10.757.128Z" transform="translate(-50.075 -500.989)" fill-rule="evenodd" fill="url(#e)"/><path d="M60.785,534.345c-.611,2.935-1.1,8.56-1.1,8.56.978.856,5.992,1.223,6.115,1.223.367,0,5.381-.367,6.237-1.59a76.286,76.286,0,0,0-.978-8.316c-4.28.611-10.028.367-10.273.122Z" transform="translate(-56.002 -505.98)" fill="rgba(0,0,0,0.78)" fill-rule="evenodd"/><path d="M321.9,279.09l1.467.122s.734.734.245,1.1-1.712-.122-1.712-.122Z" transform="translate(-304.643 -264.055)" fill="#f7ce00" fill-rule="evenodd"/><path d="M2.505,283.82l-1.468.122s-.734.734-.245,1.1,1.712-.122,1.712-.122v-1.1Z" transform="translate(0 -268.54)" fill="#f7ce00" fill-rule="evenodd"/><path d="M37.622,12.438c-.467.081-1,.983-.755,1.134a9,9,0,0,1,2.846-.812,1.578,1.578,0,0,0,.536-.566,13.816,13.816,0,0,0-2.628.244Z" transform="translate(-34.307 -10.97)" fill="rgba(46,135,207,0.56)" fill-rule="evenodd"/><path d="M250.568,7.527c.467.081,1,.758.755.908a10.114,10.114,0,0,0-2.846-.5,1.706,1.706,0,0,1-.536-.65,13.815,13.815,0,0,1,2.628.244Z" transform="translate(-234.512 -6.313)" fill="rgba(46,135,207,0.56)" fill-rule="evenodd"/><path d="M112.29,5.55a28.807,28.807,0,0,1,6.552-.141" transform="translate(-105.884 -4.426)" fill="none"/><path d="M112.29,8.278a28.807,28.807,0,0,1,6.552-.141" transform="translate(-105.884 -7.013)" fill="none"/><path d="M112.29,11.551a28.807,28.807,0,0,1,6.552-.141" transform="translate(-105.884 -10.116)" fill="none"/><path d="M112.29,15.874a36.274,36.274,0,0,1,6.439-.17" transform="translate(-105.884 -14.241)" fill="none"/><path d="M36.428,295.626l.856,3.913s0,7.338-.122,7.46-1.1,2.2-1.1,2.2.245-13.33.367-13.575Z" transform="translate(-33.602 -279.735)" fill="rgba(0,0,0,0.69)" fill-rule="evenodd"/><path d="M30.509,303.892c-.121,1.329-.776,22.957.242,22.951,3.616,1.37,11.473,1.221,14.418-.362.907,0,.362-21.622.242-22.951" transform="translate(-28.035 -287.23)" fill="none"/><path d="M301.5,290.906l-.856,3.913s0,7.338.122,7.46,1.1,2.2,1.1,2.2-.245-13.33-.367-13.575Z" transform="translate(-284.488 -275.259)" fill="rgba(0,0,0,0.75)" fill-rule="evenodd"/></g></svg>