<svg xmlns="http://www.w3.org/2000/svg" width="21.853" height="17" viewBox="0 0 21.853 17"><g transform="translate(-321.345 -66.38)"><path d="M-1176.3,1176.38h-18.853a1.5,1.5,0,0,1-1.5-1.5,1.5,1.5,0,0,1,1.5-1.5h18.853a1.5,1.5,0,0,1,1.5,1.5A1.5,1.5,0,0,1-1176.3,1176.38Z" transform="translate(1518 -1107)" fill="#003466"/><path d="M-1183.671,1176.38h-11.484a1.5,1.5,0,0,1-1.5-1.5,1.5,1.5,0,0,1,1.5-1.5h11.484a1.5,1.5,0,0,1,1.5,1.5A1.5,1.5,0,0,1-1183.671,1176.38Z" transform="translate(1525.369 -1100)" fill="#003466"/><path d="M-1180.687,1176.38h-14.468a1.5,1.5,0,0,1-1.5-1.5,1.5,1.5,0,0,1,1.5-1.5h14.468a1.5,1.5,0,0,1,1.5,1.5A1.5,1.5,0,0,1-1180.687,1176.38Z" transform="translate(1522.385 -1093)" fill="#003466"/></g></svg>