<svg xmlns="http://www.w3.org/2000/svg" width="34.004" height="16.913" viewBox="0 0 34.004 16.913"><g transform="translate(1224 -5011)"><path d="M-1197.624,5030.313h-1a.75.75,0,0,1-.75-.75.75.75,0,0,1,.75-.75h1a.75.75,0,0,1,.75.75A.75.75,0,0,1-1197.624,5030.313Zm-3,0h-1a.75.75,0,0,1-.75-.75.75.75,0,0,1,.75-.75h1a.75.75,0,0,1,.75.75A.75.75,0,0,1-1200.624,5030.313Zm-3,0h-1a.75.75,0,0,1-.75-.75.75.75,0,0,1,.75-.75h1a.75.75,0,0,1,.75.75A.75.75,0,0,1-1203.624,5030.313Zm-3,0h-1a.75.75,0,0,1-.75-.75.75.75,0,0,1,.75-.75h1a.75.75,0,0,1,.75.75A.75.75,0,0,1-1206.624,5030.313Zm-3,0h-1a.75.75,0,0,1-.75-.75.75.75,0,0,1,.75-.75h1a.75.75,0,0,1,.75.75A.75.75,0,0,1-1209.624,5030.313Zm-3,0h-1a.75.75,0,0,1-.75-.75.75.75,0,0,1,.75-.75h1a.75.75,0,0,1,.75.75A.75.75,0,0,1-1212.624,5030.313Zm-3,0h-1a.75.75,0,0,1-.75-.75.75.75,0,0,1,.75-.75h1a.75.75,0,0,1,.75.75A.75.75,0,0,1-1215.624,5030.313Zm-3,0h-1a.75.75,0,0,1-.75-.75.75.75,0,0,1,.75-.75h1a.75.75,0,0,1,.75.75A.75.75,0,0,1-1218.624,5030.313Z" transform="translate(1.135 -2.4)" fill="#ffb808"/><path d="M5.233.75H0A.75.75,0,0,1-.75,0,.75.75,0,0,1,0-.75H5.233a.75.75,0,0,1,.75.75A.75.75,0,0,1,5.233.75Z" transform="translate(-1195.05 5019.802) rotate(90)" fill="#ffb808"/><path d="M5.234.75H0A.75.75,0,0,1-.75,0,.75.75,0,0,1,0-.75H5.234a.75.75,0,0,1,.75.75A.75.75,0,0,1,5.234.75Z" transform="translate(-1218.962 5019.802) rotate(90)" fill="#ffb808"/><path d="M5.038,1.5A3.538,3.538,0,1,0,8.575,5.038,3.542,3.542,0,0,0,5.038,1.5m0-1.5A5.038,5.038,0,1,1,0,5.038,5.038,5.038,0,0,1,5.038,0Z" transform="translate(-1224 5011)" fill="#ffb808"/><path d="M5.038,1.5A3.538,3.538,0,1,0,8.575,5.038,3.542,3.542,0,0,0,5.038,1.5m0-1.5A5.038,5.038,0,1,1,0,5.038,5.038,5.038,0,0,1,5.038,0Z" transform="translate(-1200.071 5011)" fill="#ffb808"/></g></svg>