<svg xmlns="http://www.w3.org/2000/svg" xmlns:xlink="http://www.w3.org/1999/xlink" width="90.382" height="62.497" viewBox="0 0 90.382 62.497"><defs><clipPath id="a"><rect width="90.382" height="62.497" fill="#fff"/></clipPath></defs><g clip-path="url(#a)"><path d="M18.5,109.345H5.014a4.654,4.654,0,0,1-4.655-4.654V90.439a4.654,4.654,0,0,1,4.655-4.654H18.5a4.654,4.654,0,0,1,4.654,4.654v14.252a4.654,4.654,0,0,1-4.654,4.654" transform="translate(-0.198 -47.329)" fill="#003466"/><path d="M10.335,0a11.05,11.05,0,0,1,4.331.887,11.724,11.724,0,0,1,3.7,2.457,12.376,12.376,0,0,1,2.558,3.648,10.607,10.607,0,0,1,.963,4.509V23.046a10.489,10.489,0,0,1-.937,4.357,12.575,12.575,0,0,1-2.508,3.673,11.917,11.917,0,0,1-3.673,2.533,10.764,10.764,0,0,1-4.433.937H3.445a3.382,3.382,0,0,1-2.406-.988A3.251,3.251,0,0,1,0,31.1V3.446A3.413,3.413,0,0,1,.988,1.065,3.214,3.214,0,0,1,3.445,0Zm-3.5,6.891V27.656h3.5a4.741,4.741,0,0,0,1.824-.355,4.527,4.527,0,0,0,1.5-.988A4.561,4.561,0,0,0,15,23.046V11.5a4.581,4.581,0,0,0-.354-1.8,4.628,4.628,0,0,0-.988-1.469,4.559,4.559,0,0,0-1.5-.988,4.758,4.758,0,0,0-1.824-.355Z" fill="#003466"/><path d="M67.638,18.253a11.829,11.829,0,0,1,4.281,1.317,12.093,12.093,0,0,1,3.445,2.71,12.818,12.818,0,0,1,2.28,3.749,11.886,11.886,0,0,1,.836,4.433V39.43a3.093,3.093,0,0,1-1.014,2.33,3.245,3.245,0,0,1-5.116-.659,2.922,2.922,0,0,0-.456.229q-.2.127-.406.227a13.458,13.458,0,0,1-2.482.862,12.343,12.343,0,0,1-2.786.3,11.715,11.715,0,0,1-6.79-2.052,12.644,12.644,0,0,1-4.458-5.294,13.44,13.44,0,0,1-.785-2.381,11.647,11.647,0,0,1,0-5.067,13.489,13.489,0,0,1,.785-2.381,12.423,12.423,0,0,1,4.458-5.319A11.82,11.82,0,0,1,66.22,18.2h.734a4.942,4.942,0,0,1,.684.051M66.169,36.136a5.684,5.684,0,0,0,2.2-.431,5.467,5.467,0,0,0,1.8-1.19,5.832,5.832,0,0,0,1.216-1.8,5.555,5.555,0,0,0,.455-2.255,5.314,5.314,0,0,0-.455-2.153,5.915,5.915,0,0,0-3.065-3.065,5.307,5.307,0,0,0-2.153-.455,5.127,5.127,0,0,0-2.128.455,5.986,5.986,0,0,0-1.8,1.242A5.926,5.926,0,0,0,61,28.309a5.307,5.307,0,0,0-.456,2.153,5.179,5.179,0,0,0,.481,2.2,5.96,5.96,0,0,0,1.267,1.8,6.234,6.234,0,0,0,1.8,1.215,5,5,0,0,0,2.077.457" transform="translate(-29.742 -10.042)" fill="#fff"/><path d="M124.058,42.722a8.789,8.789,0,0,1-3.52-.71,9.284,9.284,0,0,1-2.863-1.9,8.938,8.938,0,0,1-1.925-2.786,8.193,8.193,0,0,1-.71-3.369V21.495a2.529,2.529,0,0,1,.229-1.266A3.614,3.614,0,0,1,116,19.164a3.271,3.271,0,0,1,1.064-.71,3.4,3.4,0,0,1,1.317-.253,3.306,3.306,0,0,1,3.293,2.989V33.755a2.4,2.4,0,0,0,.735,1.672,2.357,2.357,0,0,0,3.977-1.621V21.242a2.76,2.76,0,0,1,1.013-2.154,3.376,3.376,0,0,1,2.28-.886,3.263,3.263,0,0,1,2.356.962,3.134,3.134,0,0,1,.988,2.33V33.805a2.037,2.037,0,0,0,.734,1.7,2.511,2.511,0,0,0,1.6.582,2.351,2.351,0,0,0,1.7-.659,2.161,2.161,0,0,0,.684-1.621V21.495A3.377,3.377,0,0,1,141.03,18.2a3.386,3.386,0,0,1,2.331.911,2.786,2.786,0,0,1,1.013,2.128V33.957a8.255,8.255,0,0,1-.735,3.446,8.706,8.706,0,0,1-1.976,2.786,9.486,9.486,0,0,1-2.888,1.849,8.833,8.833,0,0,1-3.419.684,8.727,8.727,0,0,1-5.674-1.976,8.148,8.148,0,0,1-2.66,1.495,9.289,9.289,0,0,1-2.965.481" transform="translate(-63.465 -10.042)" fill="#fff"/><path d="M66.953,108.9h-.734a11.82,11.82,0,0,1-6.789-2.027,12.418,12.418,0,0,1-4.458-5.319,13.477,13.477,0,0,1-.785-2.381,11.627,11.627,0,0,1,0-5.066,13.417,13.417,0,0,1,.785-2.381,12.646,12.646,0,0,1,4.458-5.295,11.715,11.715,0,0,1,6.789-2.052,12.37,12.37,0,0,1,2.787.3,13.5,13.5,0,0,1,2.482.862q.2.1.406.228a2.92,2.92,0,0,0,.456.228,3.244,3.244,0,0,1,5.116-.659,3.093,3.093,0,0,1,1.014,2.33v8.968a11.886,11.886,0,0,1-.836,4.433,12.82,12.82,0,0,1-2.28,3.749,12.1,12.1,0,0,1-3.445,2.71,11.838,11.838,0,0,1-4.281,1.317,4.946,4.946,0,0,1-.685.051M64.091,91.418a6.244,6.244,0,0,0-1.8,1.216,5.961,5.961,0,0,0-1.266,1.8,5.176,5.176,0,0,0-.481,2.2A5.305,5.305,0,0,0,61,98.789a5.929,5.929,0,0,0,1.242,1.824,6,6,0,0,0,1.8,1.242,5.131,5.131,0,0,0,2.128.456,5.305,5.305,0,0,0,2.153-.456,5.907,5.907,0,0,0,3.065-3.065,5.305,5.305,0,0,0,.456-2.153,5.546,5.546,0,0,0-.456-2.255,5.839,5.839,0,0,0-1.216-1.8,5.479,5.479,0,0,0-1.8-1.19,5.692,5.692,0,0,0-2.2-.431,5,5,0,0,0-2.077.457" transform="translate(-29.741 -46.551)" fill="#fff"/><path d="M124.058,84.376a9.314,9.314,0,0,1,2.965.481,8.18,8.18,0,0,1,2.66,1.494,8.729,8.729,0,0,1,5.674-1.976,8.825,8.825,0,0,1,3.419.684,9.5,9.5,0,0,1,2.888,1.849,8.713,8.713,0,0,1,1.976,2.786,8.256,8.256,0,0,1,.735,3.446v12.716a2.786,2.786,0,0,1-1.013,2.128,3.386,3.386,0,0,1-2.331.911,3.377,3.377,0,0,1-3.293-3.293V93.292a2.162,2.162,0,0,0-.684-1.621,2.351,2.351,0,0,0-1.7-.659,2.516,2.516,0,0,0-1.6.582,2.038,2.038,0,0,0-.734,1.7V105.6a3.133,3.133,0,0,1-.988,2.33,3.259,3.259,0,0,1-2.356.962,3.374,3.374,0,0,1-2.28-.886,2.758,2.758,0,0,1-1.013-2.154V93.292a2.27,2.27,0,0,0-.76-1.647,2.31,2.31,0,0,0-1.571-.633,2.286,2.286,0,0,0-1.646.659,2.4,2.4,0,0,0-.735,1.671v12.565a3.306,3.306,0,0,1-3.293,2.989,3.386,3.386,0,0,1-1.317-.253,3.264,3.264,0,0,1-1.064-.71,3.614,3.614,0,0,1-.734-1.064,2.527,2.527,0,0,1-.229-1.266V93.14a8.2,8.2,0,0,1,.71-3.369,8.966,8.966,0,0,1,1.925-2.787,9.34,9.34,0,0,1,2.863-1.9,8.811,8.811,0,0,1,3.52-.709" transform="translate(-63.465 -46.552)" fill="#fff"/><path d="M190.384,83.1a3,3,0,0,1,2.254.988,3.3,3.3,0,0,1,0,4.61,3,3,0,0,1-2.254.988,3.541,3.541,0,0,1-2.407-.937,3.281,3.281,0,0,1-.937-2.508,3.086,3.086,0,0,1,1.038-2.229,3.291,3.291,0,0,1,2.306-.912m0,7.751a2.878,2.878,0,0,1,2.2.962,3.753,3.753,0,0,1,.988,2.33v10.693a3.189,3.189,0,0,1-.861,2.279,3.391,3.391,0,0,1-2.33,1.014,3.233,3.233,0,0,1-2.229-.811,3.575,3.575,0,0,1-1.114-2.28V93.94a3.138,3.138,0,0,1,1.064-2.178,3.52,3.52,0,0,1,2.28-.912" transform="translate(-103.193 -45.847)" fill="#003466"/><path d="M97.244,18.2a2.878,2.878,0,0,1,2.2.962,3.753,3.753,0,0,1,.988,2.33V39.43a3.19,3.19,0,0,1-.861,2.28,3.392,3.392,0,0,1-2.33,1.013,3.233,3.233,0,0,1-2.229-.81,3.574,3.574,0,0,1-1.114-2.28V21.292a3.138,3.138,0,0,1,1.064-2.178,3.52,3.52,0,0,1,2.28-.912" transform="translate(-51.806 -10.042)" fill="#fff"/><path d="M97.244,84.715a2.878,2.878,0,0,1,2.2.962,3.753,3.753,0,0,1,.988,2.33v17.935a3.188,3.188,0,0,1-.861,2.279,3.391,3.391,0,0,1-2.33,1.014,3.233,3.233,0,0,1-2.229-.81,3.574,3.574,0,0,1-1.114-2.28V87.805a3.138,3.138,0,0,1,1.064-2.178,3.52,3.52,0,0,1,2.28-.912" transform="translate(-51.806 -46.739)" fill="#fff"/><path d="M21.256,111.195H8.073a.661.661,0,0,0-.1-.033,2.691,2.691,0,0,1-2.334-2.676q-.013-6.071,0-12.142a2.672,2.672,0,0,1,1.082-2.2,2,2,0,0,1,.783-.394c0,.115,0,.212,0,.308a6.494,6.494,0,0,0,.055.96,1.732,1.732,0,0,0,3.335.147,4.424,4.424,0,0,0,.092-.9c.013-.221,0-.443,0-.663h1.925c0,.421-.02.828,0,1.232a1.678,1.678,0,0,0,1.131,1.428,1.756,1.756,0,0,0,2.361-1.7c0-.32,0-.64,0-.968h1.866c0,.326,0,.641,0,.955a1.772,1.772,0,0,0,.347,1.106,1.749,1.749,0,0,0,1.756.673,1.689,1.689,0,0,0,1.387-1.485c.027-.367,0-.738,0-1.107l.061-.043a6.759,6.759,0,0,1,.775.451A2.71,2.71,0,0,1,23.7,96.417q0,5.981,0,11.96c0,.073,0,.146,0,.218a2.636,2.636,0,0,1-1.523,2.311,6,6,0,0,1-.912.288M8.165,98.522A1.079,1.079,0,0,0,6.987,99.7q0,4.2,0,8.408a1.931,1.931,0,0,0,.059.5,1.566,1.566,0,0,0,1.6,1.2q6.025,0,12.049-.006a1.823,1.823,0,0,0,.753-.167,1.557,1.557,0,0,0,.9-1.537q0-4.176,0-8.353a1.091,1.091,0,0,0-1.221-1.223H8.165" transform="translate(-3.107 -51.638)" fill="#ffb808"/><path d="M35.73,92.752a5.9,5.9,0,0,1,.006-.761.853.853,0,0,1,.942-.718.841.841,0,0,1,.878.75,10.584,10.584,0,0,1,.015,1.4.874.874,0,0,1-.953.821.864.864,0,0,1-.9-.833c-.018-.217,0-.436,0-.654h.017" transform="translate(-19.7 -50.357)" fill="#ffb808"/><path d="M25.517,92.742c-.014.265-.01.533-.047.8a.932.932,0,0,1-1.817-.052,13.168,13.168,0,0,1,0-1.433.86.86,0,0,1,.893-.781.844.844,0,0,1,.934.727,5.772,5.772,0,0,1,.005.742h.035" transform="translate(-13.038 -50.356)" fill="#ffb808"/><path d="M11.625,92.762c0-.224-.013-.449,0-.672a.869.869,0,0,1,.9-.816.856.856,0,0,1,.944.786,10.881,10.881,0,0,1,0,1.4.934.934,0,0,1-1.846-.025c-.017-.223,0-.448,0-.672h0" transform="translate(-6.411 -50.357)" fill="#ffb808"/><path d="M13.012,108.755H11.845a.518.518,0,0,1-.518-.518V107.3a.518.518,0,0,1,.518-.518h1.166a.518.518,0,0,1,.518.518v.932a.518.518,0,0,1-.518.518" transform="translate(-6.249 -58.916)" fill="#ffb808"/><path d="M19.013,108.755H17.846a.518.518,0,0,1-.518-.518V107.3a.518.518,0,0,1,.518-.518h1.166a.518.518,0,0,1,.518.518v.932a.518.518,0,0,1-.518.518" transform="translate(-9.56 -58.916)" fill="#ffb808"/><path d="M25.013,108.755H23.846a.518.518,0,0,1-.518-.518V107.3a.518.518,0,0,1,.518-.518h1.166a.518.518,0,0,1,.518.518v.932a.518.518,0,0,1-.518.518" transform="translate(-12.87 -58.916)" fill="#ffb808"/><path d="M31.013,108.755H29.846a.518.518,0,0,1-.518-.518V107.3a.518.518,0,0,1,.518-.518h1.166a.518.518,0,0,1,.518.518v.932a.518.518,0,0,1-.518.518" transform="translate(-16.181 -58.916)" fill="#ffb808"/><path d="M37.013,108.755H35.846a.518.518,0,0,1-.518-.518V107.3a.518.518,0,0,1,.518-.518h1.166a.518.518,0,0,1,.518.518v.932a.518.518,0,0,1-.518.518" transform="translate(-19.491 -58.916)" fill="#ffb808"/><path d="M13.012,114.345H11.845a.518.518,0,0,1-.518-.518v-.932a.518.518,0,0,1,.518-.518h1.166a.518.518,0,0,1,.518.518v.932a.518.518,0,0,1-.518.518" transform="translate(-6.249 -62)" fill="#ffb808"/><path d="M19.013,114.345H17.846a.518.518,0,0,1-.518-.518v-.932a.518.518,0,0,1,.518-.518h1.166a.518.518,0,0,1,.518.518v.932a.518.518,0,0,1-.518.518" transform="translate(-9.56 -62)" fill="#ffb808"/><path d="M25.013,114.345H23.846a.518.518,0,0,1-.518-.518v-.932a.518.518,0,0,1,.518-.518h1.166a.518.518,0,0,1,.518.518v.932a.518.518,0,0,1-.518.518" transform="translate(-12.87 -62)" fill="#ffb808"/><path d="M31.013,114.345H29.846a.518.518,0,0,1-.518-.518v-.932a.518.518,0,0,1,.518-.518h1.166a.518.518,0,0,1,.518.518v.932a.518.518,0,0,1-.518.518" transform="translate(-16.181 -62)" fill="#ffb808"/><path d="M37.013,114.345H35.846a.518.518,0,0,1-.518-.518v-.932a.518.518,0,0,1,.518-.518h1.166a.518.518,0,0,1,.518.518v.932a.518.518,0,0,1-.518.518" transform="translate(-19.491 -62)" fill="#ffb808"/><path d="M13.012,119.935H11.845a.518.518,0,0,1-.518-.518v-.932a.518.518,0,0,1,.518-.518h1.166a.518.518,0,0,1,.518.518v.932a.518.518,0,0,1-.518.518" transform="translate(-6.249 -65.084)" fill="#ffb808"/><path d="M19.013,119.935H17.846a.518.518,0,0,1-.518-.518v-.932a.518.518,0,0,1,.518-.518h1.166a.518.518,0,0,1,.518.518v.932a.518.518,0,0,1-.518.518" transform="translate(-9.56 -65.084)" fill="#ffb808"/><path d="M25.013,119.935H23.846a.518.518,0,0,1-.518-.518v-.932a.518.518,0,0,1,.518-.518h1.166a.518.518,0,0,1,.518.518v.932a.518.518,0,0,1-.518.518" transform="translate(-12.87 -65.084)" fill="#ffb808"/><path d="M31.013,119.935H29.846a.518.518,0,0,1-.518-.518v-.932a.518.518,0,0,1,.518-.518h1.166a.518.518,0,0,1,.518.518v.932a.518.518,0,0,1-.518.518" transform="translate(-16.181 -65.084)" fill="#ffb808"/><path d="M37.013,119.935H35.846a.518.518,0,0,1-.518-.518v-.932a.518.518,0,0,1,.518-.518h1.166a.518.518,0,0,1,.518.518v.932a.518.518,0,0,1-.518.518" transform="translate(-19.491 -65.084)" fill="#ffb808"/><path d="M13.012,125.525H11.845a.518.518,0,0,1-.518-.518v-.932a.518.518,0,0,1,.518-.518h1.166a.518.518,0,0,1,.518.518v.932a.518.518,0,0,1-.518.518" transform="translate(-6.249 -68.168)" fill="#ffb808"/><path d="M19.013,125.525H17.846a.518.518,0,0,1-.518-.518v-.932a.518.518,0,0,1,.518-.518h1.166a.518.518,0,0,1,.518.518v.932a.518.518,0,0,1-.518.518" transform="translate(-9.56 -68.168)" fill="#ffb808"/><path d="M25.013,125.525H23.846a.518.518,0,0,1-.518-.518v-.932a.518.518,0,0,1,.518-.518h1.166a.518.518,0,0,1,.518.518v.932a.518.518,0,0,1-.518.518" transform="translate(-12.87 -68.168)" fill="#ffb808"/><path d="M31.013,125.525H29.846a.518.518,0,0,1-.518-.518v-.932a.518.518,0,0,1,.518-.518h1.166a.518.518,0,0,1,.518.518v.932a.518.518,0,0,1-.518.518" transform="translate(-16.181 -68.168)" fill="#ffb808"/><path d="M37.013,125.525H35.846a.518.518,0,0,1-.518-.518v-.932a.518.518,0,0,1,.518-.518h1.166a.518.518,0,0,1,.518.518v.932a.518.518,0,0,1-.518.518" transform="translate(-19.491 -68.168)" fill="#ffb808"/></g></svg>