<svg xmlns="http://www.w3.org/2000/svg" width="30.267" height="30.31" viewBox="0 0 30.267 30.31"><g transform="translate(-192.486 3.228)"><path d="M119.66,2.37A4.858,4.858,0,0,0,117.85,1,4.984,4.984,0,0,0,115.739.54H100.86A4.984,4.984,0,0,0,98.749,1,4.49,4.49,0,0,0,97.02,2.309a4.945,4.945,0,0,0-1.287,3.358V21.39a5.127,5.127,0,0,0,5.127,5.147h14.879a5.144,5.144,0,0,0,5.147-5.147V5.667a5.015,5.015,0,0,0-1.226-3.3m-.784,17.794a4.325,4.325,0,0,1-4.323,4.3H102.046a4.312,4.312,0,0,1-4.323-4.3V6.934a4.334,4.334,0,0,1,4.323-4.323h12.506a4.318,4.318,0,0,1,4.323,4.323Z" transform="translate(96.753 0.545)" fill="#bdbebf"/><path d="M108.157,16.187a.756.756,0,0,1-.714-.3L96.164,4.469a1.005,1.005,0,1,1,1.43-1.413l10.568,10.7L118.808,3.112a1.005,1.005,0,0,1,1.422,1.422l-11.36,11.36a1.013,1.013,0,0,1-.712.294" transform="translate(96.895 2.785)" fill="#bdbebf"/><path d="M139.015,6.259a6.238,6.238,0,0,1-4.045,5.852,6.333,6.333,0,0,1-2.213.407,6.249,6.249,0,0,1-6.233-6.259,6.079,6.079,0,0,1,.432-2.264A6.217,6.217,0,0,1,132.756,0a6.254,6.254,0,0,1,6.259,6.259" transform="translate(82.738 -2.228)" fill="red"/><path d="M132.756,13.517a7.254,7.254,0,0,1-7.233-7.259,7.067,7.067,0,0,1,.5-2.625A7.155,7.155,0,0,1,128.23.6l0,0a7.247,7.247,0,0,1,11.781,5.662,7.237,7.237,0,0,1-4.686,6.785l-.012,0A7.357,7.357,0,0,1,132.756,13.517ZM129.5,2.149a5.152,5.152,0,0,0-1.6,2.189l-.013.034a5.046,5.046,0,0,0-.359,1.887,5.252,5.252,0,0,0,5.233,5.259,5.363,5.363,0,0,0,1.86-.343,5.226,5.226,0,0,0,2.131-1.488l.008-.01a5.262,5.262,0,0,0-4-8.677A5.2,5.2,0,0,0,129.5,2.149Z" transform="translate(82.738 -2.228)" fill="#fff"/></g></svg>