<svg xmlns="http://www.w3.org/2000/svg" width="26.34" height="27.084" viewBox="0 0 26.34 27.084"><g transform="translate(-237.927 0.001)"><path d="M141.476,20.164a4.3,4.3,0,0,1-4.3,4.3H124.646a4.324,4.324,0,0,1-4.323-4.323V6.934a4.334,4.334,0,0,1,4.323-4.323h6.06a5.032,5.032,0,0,0,3.9-2.053l.014-.018H123.46A4.984,4.984,0,0,0,121.349,1a4.489,4.489,0,0,0-1.729,1.307,4.945,4.945,0,0,0-1.287,3.358V21.39a5.147,5.147,0,0,0,5.147,5.147h14.859a5.144,5.144,0,0,0,5.147-5.147V9.608l-.018.012a4.661,4.661,0,0,0-1.993,3.82ZM142.26,2.37A4.858,4.858,0,0,0,140.45,1,4.984,4.984,0,0,0,138.339.54H136.65a4.86,4.86,0,0,0-1.508,2.071h2.011a4.318,4.318,0,0,1,4.323,4.323V9.025a4.934,4.934,0,0,0,2.011-1.407V5.667a5.016,5.016,0,0,0-1.227-3.3" transform="translate(119.594 0.545)" fill="#bdbebf"/><path d="M136.4,4.946a4.929,4.929,0,0,1-3.2,4.625,5.005,5.005,0,0,1-1.749.322,4.938,4.938,0,0,1-4.926-4.946,4.8,4.8,0,0,1,.342-1.789A4.914,4.914,0,0,1,131.449,0,4.943,4.943,0,0,1,136.4,4.946" transform="translate(127.871 -0.001)" fill="red"/><path d="M135.737,15.5H121.174a.815.815,0,1,1,0-1.631h.127a1.316,1.316,0,0,0,.179-.01,1.253,1.253,0,0,0,.394-.141,3.519,3.519,0,0,0,1.906-3.2V8.77a4.885,4.885,0,0,1,1.8-3.758,4.793,4.793,0,0,1,5.145-.567,4.945,4.945,0,0,1,2.686,4.472v2.646a2.309,2.309,0,0,0,2.29,2.306h.038a.815.815,0,0,1,0,1.631m-11.5-1.631h8.292a3.906,3.906,0,0,1-.752-2.306V8.917a3.309,3.309,0,0,0-1.765-3.006,3.168,3.168,0,0,0-3.406.366,3.092,3.092,0,0,0-.969,1.323,3.132,3.132,0,0,0-.227,1.17v1.747a5.335,5.335,0,0,1-1.172,3.352" transform="translate(121.641 3.988)" fill="#bdbebf"/></g></svg>