<svg xmlns="http://www.w3.org/2000/svg" xmlns:xlink="http://www.w3.org/1999/xlink" width="179" height="179" viewBox="0 0 179 179"><defs><filter id="a" x="0" y="0" width="179" height="179" filterUnits="userSpaceOnUse"><feOffset dy="3" input="SourceAlpha"/><feGaussianBlur stdDeviation="22.5" result="b"/><feFlood flood-color="#febf24"/><feComposite operator="in" in2="b"/><feComposite in="SourceGraphic"/></filter><filter id="c" x="7.498" y="7.623" width="163.597" height="163.597" filterUnits="userSpaceOnUse"><feOffset dy="3" input="SourceAlpha"/><feGaussianBlur stdDeviation="22.5" result="d"/><feFlood flood-color="#fcc43a"/><feComposite operator="in" in2="d"/><feComposite in="SourceGraphic"/></filter><filter id="e" x="71.249" y="68.374" width="36.716" height="36.716" filterUnits="userSpaceOnUse"><feOffset input="SourceAlpha"/><feGaussianBlur stdDeviation="4.5" result="f"/><feFlood flood-color="#2dbb54"/><feComposite operator="in" in2="f"/><feComposite in="SourceGraphic"/></filter></defs><g transform="translate(-1064.514 -408.294)"><g transform="matrix(1, 0, 0, 1, 1064.51, 408.29)" filter="url(#a)"><circle cx="22" cy="22" r="22" transform="translate(67.5 64.5)" fill="#ffb808" opacity="0.25"/></g><g transform="matrix(1, 0, 0, 1, 1064.51, 408.29)" filter="url(#c)"><circle cx="14.299" cy="14.299" r="14.299" transform="translate(75 72.12)" fill="#ffb808" opacity="0.5"/></g><circle cx="7.218" cy="7.218" r="7.218" transform="translate(1146.752 487.657)" fill="#ffb808"/><g transform="matrix(1, 0, 0, 1, 1064.51, 408.29)" filter="url(#e)"><path d="M3.437,6.874A3.437,3.437,0,1,1,6.874,3.437,3.442,3.442,0,0,1,3.437,6.874Zm0-5.353A1.916,1.916,0,1,0,5.354,3.437,1.919,1.919,0,0,0,3.437,1.521Z" transform="translate(89.44 91.59) rotate(-133)" fill="#fff"/></g></g></svg>