<svg xmlns="http://www.w3.org/2000/svg" xmlns:xlink="http://www.w3.org/1999/xlink" width="84.802" height="84.802" viewBox="0 0 84.802 84.802"><defs><filter id="a" x="0" y="0" width="84.802" height="84.802" filterUnits="userSpaceOnUse"><feOffset dy="1" input="SourceAlpha"/><feGaussianBlur stdDeviation="6" result="b"/><feFlood flood-opacity="0.361"/><feComposite operator="in" in2="b"/><feComposite in="SourceGraphic"/></filter></defs><g transform="translate(58.164 47.604) rotate(180)"><g transform="matrix(-1, 0, 0, -1, 58.16, 47.6)" filter="url(#a)"><rect width="48.802" height="48.802" rx="24.401" transform="translate(66.8 65.8) rotate(180)" fill="#fff"/></g><path d="M18.2,10.973A8.168,8.168,0,0,1,10.973,18.2V19.2a.864.864,0,0,1-.914.914.864.864,0,0,1-.914-.914V18.2A8,8,0,0,1,1.92,10.973H.914A.864.864,0,0,1,0,10.058a.864.864,0,0,1,.914-.914H1.92A8,8,0,0,1,9.144,1.92V.914A.864.864,0,0,1,10.058,0a.864.864,0,0,1,.914.914V1.92A8.167,8.167,0,0,1,18.2,9.144H19.2a.864.864,0,0,1,.914.914.864.864,0,0,1-.914.914Zm-8.138,5.486a6.4,6.4,0,1,0-6.4-6.4,6.361,6.361,0,0,0,6.4,6.4Zm0-2.743a3.658,3.658,0,1,1,3.658-3.658,3.668,3.668,0,0,1-3.658,3.658Zm0-1.829A1.829,1.829,0,1,0,8.23,10.058a1.834,1.834,0,0,0,1.829,1.829Z" transform="translate(25.933 16.165) rotate(180)" fill="#ffb808"/></g></svg>