<svg xmlns="http://www.w3.org/2000/svg" xmlns:xlink="http://www.w3.org/1999/xlink" width="42.387" height="43.412" viewBox="0 0 42.387 43.412"><defs><clipPath id="a"><rect width="42.387" height="43.412" fill="#fff"/></clipPath></defs><g transform="translate(0)" clip-path="url(#a)"><path d="M17.147,442.047q-.449,0-.9,0l-.777,0c-1.947-.012-3.961-.024-5.943-.081-1.6-.045-3.213-.132-4.776-.216l-1.408-.075a6.861,6.861,0,0,1-.728-.088c-.1-.016-.2-.032-.305-.046a1.566,1.566,0,0,1-1.19-.805,7.534,7.534,0,0,1-.842-2.518,15.027,15.027,0,0,1-.165-4.7,2.979,2.979,0,0,1,1.332-2.2,26.574,26.574,0,0,1,4.147-2.2c2.763-1.236,5.743-2.4,9.664-3.78l.176-.062.181.045.059.013a1.455,1.455,0,0,1,.31.092l1.6.709c.916.406,1.863.825,2.8,1.232a1.225,1.225,0,0,0,.227.048l.022,0,1.142-.432c.141-.059.282-.116.423-.173.307-.124.6-.241.88-.373.626-.291,1.26-.6,1.873-.893l.823-.4.194-.093.193.043a.751.751,0,0,1,.372.142,16.81,16.81,0,0,0,4.409,2.115c1.124.41,2.268.823,3.375,1.223,1.246.45,2.535.916,3.8,1.379.292.107.569.233.837.355.154.07.3.136.445.2a4.427,4.427,0,0,1,2.589,3.1,13.516,13.516,0,0,1,.361,4.421c-.006.1-.015.189-.024.278a2.66,2.66,0,0,0-.021.392,2.2,2.2,0,0,1-.905,1.914,3.833,3.833,0,0,1-2.2.861q-.736.045-1.472.094c-1.32.086-2.684.176-4.033.218-2.561.081-5.164.129-7.682.176l-1.8.034c-.8.016-1.6.019-2.384.022l-1.071.005-1.438.008c-.714,0-1.445.01-2.175.01M15.5,426.569c-3.8,1.341-6.707,2.479-9.4,3.682a25.473,25.473,0,0,0-3.959,2.093,1.755,1.755,0,0,0-.8,1.331,13.808,13.808,0,0,0,.156,4.317,6.4,6.4,0,0,0,.691,2.109.339.339,0,0,0,.281.2c.115.015.227.033.336.05a5.861,5.861,0,0,0,.6.074l1.411.075c1.556.083,3.165.17,4.745.215,1.968.056,3.975.068,5.915.08l.778,0c1.017.007,2.054,0,3.056-.007q.72,0,1.439-.008l1.073-.005c.776,0,1.578-.006,2.364-.021l1.8-.034c2.513-.047,5.112-.095,7.666-.175,1.328-.042,2.682-.131,3.991-.216q.739-.048,1.477-.094a2.612,2.612,0,0,0,1.5-.589.976.976,0,0,0,.442-.873,3.683,3.683,0,0,1,.025-.587c.008-.08.016-.156.02-.228h0a12.326,12.326,0,0,0-.319-4.022,3.162,3.162,0,0,0-1.874-2.284c-.163-.069-.322-.142-.476-.212-.258-.118-.5-.229-.748-.319-1.264-.462-2.552-.927-3.8-1.377-1.107-.4-2.253-.814-3.378-1.224a18.945,18.945,0,0,1-4.491-2.117l-.534.257c-.617.3-1.255.605-1.888.9-.313.146-.631.274-.939.4-.14.057-.281.113-.42.171l-.019.008-1.481.56-.178-.037c-.043-.009-.093-.017-.147-.025a2.1,2.1,0,0,1-.531-.136c-.937-.409-1.886-.829-2.8-1.235l-1.586-.7" transform="translate(0 -398.635)" fill="#fff"/><path d="M173.589,141.7l-.047,0-.4-.016c-.3-.011-.612-.022-.925-.051a6.515,6.515,0,0,1-3.072-1.057,17.057,17.057,0,0,1-1.4-1.084c-.189-.157-.385-.32-.578-.473l-.047-.038-.039-.046a14.367,14.367,0,0,1-1.948-2.818c-.083-.163-.145-.289-.2-.409l-.052-.114c-.138-.307-.172-.35-.3-.386a1.694,1.694,0,0,1-1.05-1.222l-.021-.057q-.213-.574-.427-1.148-.267-.717-.533-1.434l-.056-.151c-.086-.229-.175-.466-.244-.718a1.894,1.894,0,0,1,.155-1.588,1.954,1.954,0,0,1,1.431-.806l.469-.071.115.259a3.08,3.08,0,0,0,.151-.461c.257-1.091.476-2.154.735-3.43A1.562,1.562,0,0,1,166.711,123a7.955,7.955,0,0,1,2.408.031c.141.017.283.033.424.048.3.031.595.066.884.1a19.884,19.884,0,0,0,3.726.2,8.274,8.274,0,0,0,2.474-.511,4.145,4.145,0,0,1,1.162-.3,2.515,2.515,0,0,1,2.458,1.506,10.489,10.489,0,0,1,.922,2.587q.047.183.1.366c.139.527.279,1.012.421,1.466l.046-.088.18-.334.38.008a1.489,1.489,0,0,1,1.221.532,1.519,1.519,0,0,1,.2,1.343,16.469,16.469,0,0,1-.573,1.842l-.023.061a7.387,7.387,0,0,0-.505,1.836,1.387,1.387,0,0,1-1.539,1.364,13.416,13.416,0,0,1-2.37,3.92l-.026.044c-.017.03-.035.061-.054.09l-.1.159-.172.077-.04.017c-.1.09-.2.182-.3.279a10.157,10.157,0,0,1-.822.709,7.052,7.052,0,0,1-3.553,1.344Zm-5.6-3.617c.186.149.371.3.549.451a15.889,15.889,0,0,0,1.3,1.007,5.286,5.286,0,0,0,2.493.853c.279.025.56.035.858.046l.364.014a5.733,5.733,0,0,0,2.891-1.1,9.063,9.063,0,0,0,.721-.625c.126-.117.257-.238.391-.356a.772.772,0,0,1,.112-.082,1.142,1.142,0,0,1,.1-.131,12.218,12.218,0,0,0,2.2-3.681.957.957,0,0,1,1.048-.672.582.582,0,0,0,.313-.025.455.455,0,0,0,.051-.208,8.438,8.438,0,0,1,.576-2.149l.022-.061a15.266,15.266,0,0,0,.531-1.7c.008-.034.014-.064.019-.091-.048.083-.1.167-.158.248a.932.932,0,0,1-.9.447.9.9,0,0,1-.722-.659c-.236-.682-.459-1.422-.682-2.263q-.049-.186-.1-.373a9.4,9.4,0,0,0-.8-2.289c-.46-.82-.887-.9-1.28-.875a2.985,2.985,0,0,0-.8.215,9.47,9.47,0,0,1-2.838.594,21.1,21.1,0,0,1-3.958-.2c-.286-.033-.582-.067-.872-.1-.146-.015-.292-.032-.438-.05a6.909,6.909,0,0,0-2.039-.043c-.316.058-.347.088-.412.408-.262,1.287-.483,2.359-.743,3.467a5.087,5.087,0,0,1-.493,1.24.986.986,0,0,1-.87.607h0a.96.96,0,0,1-.815-.5.405.405,0,0,0-.152.128.773.773,0,0,0,0,.58c.055.2.13.4.21.613l.058.157q.264.716.531,1.43.214.575.427,1.15l.022.06a1.472,1.472,0,0,0,.219.454,1.661,1.661,0,0,1,1.1,1.071l.046.1c.049.106.106.221.182.371a13.075,13.075,0,0,0,1.749,2.531" transform="translate(-152.069 -114.94)" fill="#fff"/><path d="M183,15.331a.777.777,0,0,1-.111-.008.9.9,0,0,1-.722-.659c-.236-.682-.459-1.422-.682-2.263q-.049-.186-.1-.373a9.4,9.4,0,0,0-.8-2.289c-.46-.82-.888-.9-1.28-.875a2.986,2.986,0,0,0-.8.215,9.468,9.468,0,0,1-2.838.594,21.107,21.107,0,0,1-3.958-.2c-.286-.033-.582-.067-.872-.1-.146-.015-.292-.032-.438-.05a6.908,6.908,0,0,0-2.039-.043c-.316.058-.347.088-.412.408-.262,1.287-.483,2.359-.743,3.467a5.089,5.089,0,0,1-.493,1.24.986.986,0,0,1-.87.607h0a1.015,1.015,0,0,1-.9-.642c-.049-.093-.087-.183-.121-.262-.012-.029-.025-.059-.038-.088l-.021-.055c-.077-.228-.162-.463-.245-.69a13.193,13.193,0,0,1-.521-1.65,9.377,9.377,0,0,1,0-4.946l-.195-.156.068-.366a3.521,3.521,0,0,1,.578-1.39l-.284-.5.448-.327c.063-.046.129-.1.2-.157a2.9,2.9,0,0,1,.654-.435c.387-.172.782-.32,1.164-.464.239-.09.487-.183.724-.279a.282.282,0,0,0,.081-.049A6.422,6.422,0,0,1,169.811.7l1.821-.7-.449.676a6.863,6.863,0,0,1,1.732-.015,3.21,3.21,0,0,1,.723.154l.578.206c.178,0,.356.006.534.014a14.9,14.9,0,0,1,4.305.816,8.006,8.006,0,0,1,4.895,4.741,9.973,9.973,0,0,1,.37,7.2c0,.018,0,.036-.007.054l-.016.109-.052.1c-.039.073-.076.147-.113.221a4.434,4.434,0,0,1-.345.6.96.96,0,0,1-.791.455m-.231-1.164h0m1.541-.332h0m-4.894-6.217a2.549,2.549,0,0,1,2.254,1.514,10.487,10.487,0,0,1,.922,2.587q.047.183.1.366c.138.522.276,1,.418,1.454a.833.833,0,0,1,.027-.1,8.776,8.776,0,0,0-.329-6.373,6.724,6.724,0,0,0-4.157-4.039,13.663,13.663,0,0,0-3.946-.747c-.479-.021-.977-.015-1.457-.01-.227,0-.454.005-.681.005h-.539l-.059-.414a7.006,7.006,0,0,0-1.859.327l-.877.316a4.36,4.36,0,0,0-.789.774,1.442,1.442,0,0,1-.622.472c-.251.1-.506.2-.752.29l-.022.008-1.006.82a2.833,2.833,0,0,0-.663.745l.254.17-.164.456c-.029.08-.058.159-.087.238-.061.165-.119.321-.169.477a8.147,8.147,0,0,0,0,4.392,12.074,12.074,0,0,0,.475,1.494c.056.153.113.308.168.466a3.026,3.026,0,0,0,.14-.435c.257-1.091.476-2.154.735-3.43a1.562,1.562,0,0,1,1.407-1.383,7.953,7.953,0,0,1,2.408.031c.141.017.283.033.424.048.3.031.595.066.884.1a19.879,19.879,0,0,0,3.726.2,8.273,8.273,0,0,0,2.474-.511,4.149,4.149,0,0,1,1.162-.3q.1-.008.2-.008" transform="translate(-153.488)" fill="#fff"/><path d="M244.649,366.585l-.178-.037c-.043-.009-.093-.017-.147-.025a2.1,2.1,0,0,1-.531-.136c-.937-.409-1.886-.829-2.8-1.235l-1.6-.706-.064-.014c-.037-.008-.074-.015-.11-.025l-.474-.118.03-5.468,1,.8c.2.161.4.326.594.487a15.88,15.88,0,0,0,1.3,1.009,5.291,5.291,0,0,0,2.494.853c.279.025.56.035.858.046l.363.014a5.816,5.816,0,0,0,2.891-1.1,9.112,9.112,0,0,0,.72-.624c.126-.117.257-.239.391-.357a.863.863,0,0,1,.29-.163l.008,0,.866-.392.017,4.59-.354.17-.82.395c-.617.3-1.255.605-1.888.9-.313.146-.632.274-.939.4-.14.057-.281.113-.42.171l-.019.008Zm-4.655-3.233,1.5.663c.916.406,1.863.825,2.8,1.232a1.224,1.224,0,0,0,.227.048l.022,0,1.142-.432c.141-.059.282-.116.423-.173.307-.124.6-.241.88-.373.626-.291,1.26-.6,1.873-.893l.469-.226-.006-1.511c-.1.081-.194.16-.3.236a7.055,7.055,0,0,1-3.553,1.344l-.047,0-.047,0-.4-.016c-.3-.011-.612-.022-.925-.05a6.52,6.52,0,0,1-3.073-1.058c-.342-.229-.666-.48-.979-.734Zm-.607,1.091h0" transform="translate(-223.905 -336.516)" fill="#fff"/></g></svg>