<svg xmlns="http://www.w3.org/2000/svg" width="25.157" height="26.006" viewBox="0 0 25.157 26.006"><g transform="translate(-69.941 -1.081)"><path d="M54.809.538H39.916a5.136,5.136,0,0,0-5.131,5.131V21.4a5.142,5.142,0,0,0,5.145,5.145H54.809A5.14,5.14,0,0,0,59.942,21.4V5.669A5.137,5.137,0,0,0,54.809.538m3.125,19.62a4.315,4.315,0,0,1-4.323,4.309H41.1a4.3,4.3,0,0,1-4.309-4.309V6.938A4.315,4.315,0,0,1,41.1,2.615H53.611a4.327,4.327,0,0,1,4.323,4.323Z" transform="translate(35.156 0.543)" fill="#bdbebf"/><path d="M44.159,14.277a.582.582,0,0,1-.464-.229l-2.942-3.814a.587.587,0,0,1-.123-.376l.157-5.075a.62.62,0,0,1,.605-.569.588.588,0,0,1,.569.605L41.81,9.683l2.813,3.649a.586.586,0,0,1-.1.822.594.594,0,0,1-.36.123" transform="translate(41.063 4.258)" fill="#bdbebf"/><path d="M41.33,5.865a.5.5,0,0,1-.5-.5V2.636a.5.5,0,1,1,1.005,0V5.362a.5.5,0,0,1-.5.5" transform="translate(41.262 2.155)" fill="#bdbebf"/><path d="M40.376,6.1a.507.507,0,0,1-.436-.251L38.576,3.488a.5.5,0,0,1,.873-.5l1.363,2.361a.5.5,0,0,1-.185.686.493.493,0,0,1-.251.068" transform="translate(38.921 2.762)" fill="#bdbebf"/><path d="M39.668,6.781a.493.493,0,0,1-.251-.068L37.056,5.349a.5.5,0,1,1,.5-.871l2.361,1.365a.5.5,0,0,1-.251.937" transform="translate(37.197 4.458)" fill="#bdbebf"/><path d="M39.4,7.724H36.67a.5.5,0,0,1,0-1.005H39.4a.5.5,0,0,1,0,1.005" transform="translate(36.552 6.79)" fill="#bdbebf"/><path d="M37.27,10.725a.5.5,0,0,1-.251-.937L39.38,8.425a.5.5,0,1,1,.5.871l-2.361,1.361a.493.493,0,0,1-.251.068" transform="translate(37.16 8.445)" fill="#bdbebf"/><path d="M38.949,12.933a.493.493,0,0,1-.251-.068.5.5,0,0,1-.185-.686l1.365-2.361a.5.5,0,0,1,.873.5l-1.365,2.361a.507.507,0,0,1-.436.251" transform="translate(38.856 9.668)" fill="#bdbebf"/><path d="M41.255,13.755a.5.5,0,0,1-.5-.5V10.526a.5.5,0,0,1,1.005,0v2.726a.5.5,0,0,1-.5.5" transform="translate(41.186 10.129)" fill="#bdbebf"/><path d="M44.257,12.97a.507.507,0,0,1-.436-.251l-1.363-2.361a.5.5,0,0,1,.873-.5l1.363,2.361a.5.5,0,0,1-.185.686.493.493,0,0,1-.251.068" transform="translate(42.843 9.706)" fill="#bdbebf"/><path d="M46.464,10.791a.493.493,0,0,1-.251-.068L43.852,9.359a.5.5,0,1,1,.5-.871l2.361,1.365a.5.5,0,0,1-.251.937" transform="translate(44.066 8.51)" fill="#bdbebf"/><path d="M47.284,7.8H44.56a.5.5,0,0,1,0-1.005h2.724a.5.5,0,0,1,0,1.005" transform="translate(44.526 6.865)" fill="#bdbebf"/><path d="M44.14,6.845a.5.5,0,0,1-.251-.937L46.25,4.545a.5.5,0,1,1,.5.871L44.392,6.776a.493.493,0,0,1-.251.068" transform="translate(44.103 4.523)" fill="#bdbebf"/><path d="M42.959,6.137a.482.482,0,0,1-.251-.068.5.5,0,0,1-.187-.686l1.365-2.361a.5.5,0,0,1,.871.5L43.4,5.885a.509.509,0,0,1-.436.251" transform="translate(42.908 2.8)" fill="#bdbebf"/></g></svg>